<?xml version="1.0" encoding="UTF-8"?>
<svg xmlns="http://www.w3.org/2000/svg" version="1.1" viewBox="0 0 1000 1000">
  <!-- Generator: Adobe Illustrator 29.0.0, SVG Export Plug-In . SVG Version: 2.1.0 Build 186)  -->
  <defs>
    <style>
      .st0 {
        stroke-width: 6.24px;
      }

      .st0, .st1, .st2, .st3, .st4, .st5, .st6, .st7, .st8, .st9, .st10, .st11, .st12, .st13, .st14, .st15, .st16, .st17, .st18, .st19, .st20, .st21, .st22, .st23, .st24, .st25, .st26, .st27, .st28, .st29, .st30, .st31, .st32, .st33, .st34, .st35, .st36, .st37, .st38, .st39, .st40, .st41, .st42, .st43, .st44, .st45 {
        stroke-linejoin: round;
      }

      .st0, .st1, .st2, .st3, .st4, .st5, .st6, .st7, .st8, .st9, .st10, .st11, .st12, .st13, .st14, .st15, .st16, .st17, .st18, .st19, .st20, .st21, .st22, .st23, .st24, .st25, .st26, .st27, .st28, .st29, .st30, .st31, .st32, .st33, .st34, .st35, .st37, .st38, .st39, .st40, .st41, .st46, .st42, .st43, .st44, .st47, .st45 {
        stroke-linecap: round;
      }

      .st0, .st1, .st2, .st3, .st4, .st5, .st6, .st7, .st8, .st9, .st10, .st11, .st12, .st13, .st14, .st15, .st16, .st17, .st18, .st19, .st20, .st21, .st22, .st24, .st25, .st27, .st28, .st29, .st30, .st31, .st33, .st34, .st36, .st37, .st48, .st49, .st50, .st51, .st47, .st52 {
        stroke: #000;
      }

      .st0, .st1, .st2, .st3, .st4, .st5, .st6, .st7, .st8, .st9, .st10, .st11, .st12, .st13, .st14, .st15, .st16, .st17, .st18, .st19, .st20, .st28, .st29, .st30, .st53, .st54, .st55, .st32, .st35, .st36, .st56, .st57, .st38, .st39, .st40, .st41, .st46, .st42, .st43, .st48, .st49, .st50, .st44, .st58, .st47, .st45 {
        fill: none;
      }

      .st1 {
        stroke-width: 6.58px;
      }

      .st2 {
        stroke-width: 6.54px;
      }

      .st3 {
        stroke-width: 6.2px;
      }

      .st4, .st43, .st52 {
        stroke-width: 6px;
      }

      .st5 {
        stroke-width: 6.07px;
      }

      .st6 {
        stroke-width: 6.33px;
      }

      .st7, .st42, .st45 {
        stroke-width: 4.38px;
      }

      .st8, .st31, .st36, .st47 {
        stroke-width: 4px;
      }

      .st9 {
        stroke-width: 2.61px;
      }

      .st10, .st37 {
        stroke-width: 9px;
      }

      .st11, .st38 {
        stroke-width: 7px;
      }

      .st12, .st22 {
        stroke-width: 8px;
      }

      .st13 {
        stroke-width: 8.04px;
      }

      .st14 {
        stroke-width: 4.93px;
      }

      .st15 {
        stroke-width: 5.04px;
      }

      .st16 {
        stroke-width: 5.01px;
      }

      .st17, .st21, .st23, .st27 {
        stroke-width: 5px;
      }

      .st18 {
        stroke-width: 5.06px;
      }

      .st59, .st60 {
        fill: #fd35b8;
      }

      .st61 {
        fill: #ff9061;
      }

      .st19 {
        stroke-width: 3.03px;
      }

      .st20, .st62 {
        stroke-width: 3px;
      }

      .st60 {
        stroke: #fd35b8;
        stroke-width: 2.19px;
      }

      .st60, .st62, .st53, .st54, .st55, .st56, .st57, .st46, .st48, .st49, .st50, .st51, .st63, .st58, .st47, .st52 {
        stroke-miterlimit: 10;
      }

      .st64 {
        fill: #ffc7ec;
      }

      .st21, .st22, .st65 {
        fill: #00ffe4;
      }

      .st66 {
        fill: #ff9d7b;
      }

      .st23 {
        fill: #c1009d;
        stroke: #c1009d;
      }

      .st24 {
        stroke-width: 3.03px;
      }

      .st25 {
        stroke-width: 7.98px;
      }

      .st26, .st62, .st53, .st54, .st55 {
        stroke: #fff;
      }

      .st26, .st62, .st33, .st67 {
        fill: #fff;
      }

      .st26, .st35, .st56, .st40 {
        stroke-width: 18px;
      }

      .st68 {
        fill: #6cd9ff;
      }

      .st28 {
        stroke-width: 10px;
      }

      .st29 {
        stroke-width: 9.64px;
      }

      .st30 {
        stroke-width: 9.6px;
      }

      .st53 {
        stroke-width: 3.26px;
      }

      .st54 {
        stroke-width: 3.2px;
      }

      .st55 {
        stroke-width: 3.23px;
      }

      .st69 {
        fill: #8afda9;
      }

      .st70 {
        fill: #8fafd9;
      }

      .st71 {
        fill: #ff769d;
      }

      .st31 {
        fill: #fd32b7;
      }

      .st32 {
        stroke: #002f44;
        stroke-width: 40px;
      }

      .st72 {
        fill: #bbe4ff;
      }

      .st33 {
        stroke-width: 3.56px;
      }

      .st73 {
        fill: #ffb0ff;
      }

      .st34 {
        stroke-width: 2px;
      }

      .st74 {
        fill: #f7ff50;
      }

      .st35 {
        stroke: #bbe4ff;
      }

      .st56, .st57, .st63 {
        stroke: #ffb0ff;
      }

      .st75 {
        fill: #fad7ff;
      }

      .st57 {
        stroke-width: 26px;
      }

      .st76 {
        fill: #ff698d;
      }

      .st77 {
        fill: #b7aee1;
      }

      .st37, .st78 {
        fill: #009eff;
      }

      .st38, .st39, .st40, .st41, .st46, .st42, .st43 {
        stroke: #009eff;
      }

      .st39 {
        stroke-width: 7.67px;
      }

      .st41 {
        stroke-width: 3.29px;
      }

      .st46 {
        stroke-width: 6.97px;
      }

      .st48 {
        stroke-width: 11.37px;
      }

      .st49 {
        stroke-width: 6.9px;
      }

      .st50 {
        stroke-width: 5.91px;
      }

      .st44 {
        stroke: #ff6169;
        stroke-width: 2.01px;
      }

      .st79 {
        fill: #d1efff;
      }

      .st80, .st52 {
        fill: #73f5ff;
      }

      .st63 {
        stroke-width: .27px;
      }

      .st58 {
        stroke: #00ffe4;
        stroke-width: 18.04px;
      }

      .st81 {
        fill: #a32803;
      }

      .st82 {
        fill: #71fffb;
      }

      .st83 {
        fill: #ff7c94;
      }

      .st45 {
        stroke: #ff5fff;
      }
    </style>
  </defs>
  <g id="_x23_together">
    <g id="_x31_">
      <path class="st26" d="M735.3,554.63s-37.66-14.53-22.14-56.15c0,0,9.91-27.74,39.63-23.78,0,0,19.16-20.48,46.9-.66,0,0,14.86-15.52,41.61.66,0,0,22.79-1.32,30.39,15.19,0,0,23.12-4.62,36.33,13.21,0,0,22.45,5.94,26.08,35.33,0,0,14.21,2.98,18.83,18.83,0,0,23.78,15.19,13.21,45.58,0,0-9.91,27.08-46.24,23.78l-9.59,6.61-26.76,96.44s19.9,14.24,23.95,40.03c2.05,13.09-.72,29.14-10.72,47.82l-.24,44.66c-.06,14.85-12.11,26.86-26.96,26.86h-361.8c-14.97,0-27.07-12.19-26.96-27.16l.45-39.73s-7.58-26.08-3.81-49.57c.75-4.68,1.8-10.11,3.24-14.83,2.01-6.6,6.86-15.94,18.42-18.83,0,0,1.65-4.62,5.28-5.61,0,0-3.96-16.18,4.95-29.39,0,0-22.79-28.07-5.61-64.4,0,0,16.51-40.29,65.72-36.99,0,0,38.31,3.3,53.83,41.94,0,0,10.9-39.63,50.86-45.58,0,0,22.13-4.29,39.63,5.28l21.13-36,.35-13.54Z"/>
    </g>
    <g id="Layer_26">
      <g>
        <path class="st66" d="M685.34,828.1s-1.33-72.62,11.89-119.93c17.07-61.11,50.75-113.09,63.03-131.72l1.73-55.52,19.75-1.55,14.5,47.02,22.49-45.06,16.8,4.97-2.44,46.22,41.31-37.63,12.01,12.64-15.67,42.55,44.1-13.24,6.54,16.66-32.51,25.35s-39.21,157.5-59.85,211.24"/>
        <path class="st13" d="M692.28,714.02s46.2-103.63,67.98-137.01l1.73-56.07,19.75-1.57,14.5,47.48,22.49-45.5,16.8,5.01-2.44,46.67,41.31-37.99,12.01,12.76-15.67,42.97,44.1-13.37,6.54,16.82-32.51,25.6s-39.21,156-59.85,210.27h-143.67l6.94-116.06Z"/>
        <path class="st69" d="M760.37,500.48s8.14-14.4,21.87-7.89c10.83,5.13,8.87,21.83,3.7,30.44-6.17,10.29-18.51,12.68-29.64,11.88-.01,0-21.98-1.59-21.46-19.7,0,0,.8-22.04,25.53-14.73"/>
        <path class="st22" d="M760.37,500.48s8.14-14.4,21.87-7.89c10.83,5.13,8.87,21.83,3.7,30.44-6.17,10.29-18.51,12.68-29.64,11.88-.01,0-21.98-1.59-21.46-19.7,0,0,.8-22.04,25.53-14.73Z"/>
        <path class="st65" d="M804.6,503.91s2.65-6.97,8.81-9.79c3.65-1.67,8.96-1.5,12.65.06,2.41,1.02,5.24,3.14,6.88,7.53,0,0,6.4-3.33,12.83-1.46,10.24,2.98,13.17,15.88,8.98,24.55-7.06,14.6-29,13.39-40.41,5.25-6.73-4.8-14-13.27-9.74-26.14"/>
        <path class="st12" d="M804.6,503.91s2.65-6.97,8.81-9.79c3.65-1.67,8.96-1.5,12.65.06,2.41,1.02,5.24,3.14,6.88,7.53,0,0,6.4-3.33,12.83-1.46,10.24,2.98,13.17,15.88,8.98,24.55-7.06,14.6-29,13.39-40.41,5.25-6.73-4.8-14-13.27-9.74-26.14Z"/>
        <path class="st65" d="M893.31,525.46s10.44-.13,14.22,7.97c0,0,7.77,11.82-5.05,19.55-5.04,3.04-10.54,4.02-16.3,3.07-6.83-1.13-15.75-5.17-20.74-17.79,0,0-6.55-17.86,10.38-23.61,0,0,11.5-2.66,17.49,10.81"/>
        <path class="st12" d="M893.31,525.46s10.44-.13,14.22,7.97c0,0,7.77,11.82-5.05,19.55-5.04,3.04-10.54,4.02-16.3,3.07-6.83-1.13-15.75-5.17-20.74-17.79,0,0-6.55-17.86,10.38-23.61,0,0,11.5-2.66,17.49,10.81Z"/>
        <path class="st65" d="M920.75,559.84c2.2.06,4.4.74,6.29,2.19,2.93,2.24,5.48,6.13,3.95,12.74,0,0,13.36.95,13.21,12.96,0,0,.89,10.35-9.86,14.05-3.66,1.26-6.61,1.22-10.26.13-4.87-1.45-12.14-4.94-16-13.21-3.86-8.28-2.77-20.37,4.88-26.29,2.19-1.69,4.99-2.63,7.78-2.56"/>
        <path class="st12" d="M920.75,559.84c2.2.06,4.4.74,6.29,2.19,2.93,2.24,5.48,6.13,3.95,12.74,0,0,13.36.95,13.21,12.96,0,0,.89,10.35-9.86,14.05-3.66,1.26-6.61,1.22-10.26.13-4.87-1.45-12.14-4.94-16-13.21-3.86-8.28-2.77-20.37,4.88-26.29,2.19-1.69,4.99-2.63,7.78-2.56Z"/>
        <path class="st67" d="M786.07,663.72c-.62,11.75-10.65,20.76-22.39,20.14-11.75-.62-20.76-10.65-20.14-22.39.62-11.75,10.65-20.76,22.39-20.14,11.75.62,20.76,10.65,20.14,22.39"/>
        <path class="st16" d="M786.47,663.22c-1.26,11.69-11.76,20.15-23.45,18.89-11.69-1.26-20.15-11.76-18.89-23.45,1.26-11.69,11.76-20.15,23.45-18.89,11.7,1.26,20.15,11.76,18.89,23.45Z"/>
        <path class="st67" d="M849.64,680.16c-.62,11.75-10.65,20.76-22.39,20.14-11.75-.62-20.76-10.65-20.14-22.39.62-11.75,10.65-20.76,22.39-20.14,11.75.62,20.76,10.65,20.14,22.39"/>
        <path class="st16" d="M849.05,683.1c-1.26,11.69-11.76,20.15-23.45,18.89-11.69-1.26-20.15-11.76-18.89-23.46,1.26-11.69,11.76-20.15,23.45-18.89,11.7,1.26,20.15,11.76,18.89,23.45Z"/>
        <path d="M771.15,662.89c-.87,8.11-8.15,13.97-16.26,13.1-8.11-.87-13.97-8.15-13.1-16.26.87-8.11,8.15-13.97,16.26-13.1,8.11.87,13.97,8.15,13.1,16.26"/>
        <path d="M834.69,683.59c-.87,8.11-8.15,13.97-16.26,13.1-8.11-.87-13.97-8.15-13.1-16.26.87-8.11,8.15-13.97,16.26-13.1,8.11.87,13.97,8.15,13.1,16.26"/>
        <path class="st71" d="M785.89,687.75s7.19,3.94,13.9,4.62c0,0-.77,14.61-10.77,11.12,0,0-10.05-2.02-3.13-15.74"/>
        <path class="st31" d="M787.7,688.11c2.07.92,5.07,2.1,8.2,2.78,1.69.37,2.79,2,2.42,3.69-.89,4.08-3.39,10.31-10.3,7.9,0,0-8.45-1.7-4.52-12.56.62-1.71,2.54-2.55,4.2-1.81Z"/>
      </g>
    </g>
    <g id="Layer_34">
      <rect class="st72" x="488.08" y="823.14" width="404.23" height="69.83"/>
    </g>
    <g id="Layer_23">
      <g>
        <path class="st59" d="M875.93,805.88c-13.59,17.94-39.14,21.46-57.08,7.87-17.94-13.59-21.46-39.14-7.87-57.08s39.14-21.46,57.08-7.87c17.94,13.59,21.46,39.14,7.87,57.08"/>
        <path class="st2" d="M872.45,809.9c-15.81,16.01-41.6,16.18-57.62.37-16.01-15.81-16.18-41.6-.37-57.62s41.6-16.18,57.62-.37c16.01,15.81,16.18,41.6.37,57.62Z"/>
        <path d="M830.93,785.09c-.35,5.69-2.77,10.17-5.41,10.01-2.64-.16-4.49-4.9-4.14-10.59.35-5.69,2.77-10.17,5.41-10.01,2.64.16,4.49,4.9,4.14,10.59"/>
        <path d="M863.15,786.51c-.35,5.69-2.77,10.17-5.41,10.01-2.64-.16-4.49-4.9-4.14-10.59.35-5.69,2.77-10.17,5.41-10.01,2.64.16,4.49,4.9,4.14,10.59"/>
        <polyline class="st53" points="853.74 752.81 838.61 752.12 838.74 759.02 851.14 759.59 850.19 767.19 844.55 768.16 839.14 766.58 839.03 762.37"/>
        <line class="st44" x1="833.1" y1="762.73" x2="840.02" y2="762.43"/>
        <path class="st33" d="M865.54,814.47c1.43,6.27-2.5,12.51-8.77,13.94-6.27,1.43-12.51-2.5-13.94-8.77-1.43-6.27,2.5-12.51,8.77-13.94,6.27-1.43,12.51,2.5,13.94,8.77Z"/>
        <path class="st33" d="M840.72,814.03c1.43,6.27-2.5,12.51-8.77,13.94-6.27,1.43-12.51-2.5-13.94-8.77-1.43-6.27,2.5-12.51,8.77-13.94,6.27-1.43,12.51,2.5,13.94,8.77Z"/>
        <ellipse class="st34" cx="843.03" cy="795.12" rx="1.99" ry="1.06" transform="translate(43.23 1633.7) rotate(-89.68)"/>
      </g>
    </g>
    <g id="Layer_24">
      <g>
        <path class="st77" d="M609.56,763.66l3.4.11c3.03.1,5.64,2.21,6.32,5.13,2.07,8.94,5.03,28.58-2.8,47.77-1.27,3.12-4.41,5.09-7.85,5.02l-8.81-.18c-4.43-.09-8.27-3.14-9.35-7.39-.83-3.27-1.81-10.08-1.16-12.32l20.24-38.14Z"/>
        <path class="st77" d="M514.85,763.69l-3.4.11c-3.03.1-5.64,2.21-6.32,5.13-2.07,8.94-5.03,28.58,2.8,47.77,1.27,3.12,4.41,5.09,7.85,5.02l8.81-.18c4.43-.09,8.27-3.14,9.35-7.39.83-3.27,1.81-10.08,1.16-12.32l-20.24-38.14Z"/>
        <path class="st21" d="M517.44,762.83l-6.85.11c-3.03.1-5.64,2.21-6.32,5.13-2.07,8.94-5.03,28.58,2.8,47.77,1.27,3.12,4.41,5.09,7.85,5.02l8.81-.18c4.43-.09,8.27-3.14,9.35-7.39.83-3.27,1.54-9.37.88-11.61l-16.52-38.86Z"/>
        <line class="st9" x1="514.61" y1="813.15" x2="529.56" y2="806.24"/>
        <line class="st9" x1="513.61" y1="807.18" x2="519.61" y2="810.16"/>
        <line class="st9" x1="511.81" y1="801.73" x2="525.9" y2="794.81"/>
        <line class="st9" x1="510.81" y1="795.76" x2="516.81" y2="798.74"/>
        <line class="st9" x1="509.64" y1="790.1" x2="521.72" y2="784.2"/>
        <line class="st9" x1="508.64" y1="784.13" x2="514.64" y2="787.11"/>
        <path class="st9" d="M508.02,774.25"/>
        <path class="st21" d="M606.98,762.8l6.85.11c3.03.1,5.64,2.21,6.32,5.13,2.07,8.94,5.03,28.58-2.8,47.77-1.27,3.12-4.41,5.09-7.85,5.02l-8.81-.18c-4.43-.09-8.27-3.14-9.35-7.39-.83-3.27-1.54-9.37-.88-11.61l16.52-38.86Z"/>
        <path class="st80" d="M530.66,748.83s-24.65,7.05-12.12,27.68l12.37,20.1c3.04,4.94,8.43,7.93,14.22,7.9l38.33-.18c6.7-.03,12.76-4.01,15.44-10.15l4.78-10.92s16.71-31.34-12.81-32.56"/>
        <path class="st4" d="M530.66,749.69s-24.65,3.63-12.12,26.82c3.55,6.57,6.68,13.52,10.54,19.91,2.84,4.69,6.89,8.12,12.61,8.1l40.05-.18c6.7-.03,12.76-4.01,15.44-10.15,3.9-7.54,7.65-14.75,9.64-23.06,2.15-8.96,1.1-19.72-15.95-20.42"/>
        <path class="st70" d="M531.71,760.38l-2.89-31.85c-1.33-9.59,5.96-18.21,15.64-18.48l28.73-.81c9.82-.28,17.78,7.92,17.21,17.73l-.77,33.84"/>
        <path class="st52" d="M532.56,761.92l-1.65-34.51c-.99-9.63,6.61-17.98,16.29-17.91l28.74.22c9.83.08,17.48,8.55,16.56,18.33l-1.99,33.79"/>
        <path class="st36" d="M546.96,792.31l3.29-6.86c1.11-2.3,3.46-3.77,6.11-3.8l13.21-.16c3.43-.04,6.6,1.98,7.97,5.08l2.92,6.59"/>
        <path class="st24" d="M551.57,756.78c.17,6.3-.97,11.42-2.54,11.43-1.58.01-2.99-5.09-3.16-11.39-.17-6.3.97-11.42,2.54-11.43,1.58-.01,2.99,5.09,3.16,11.39Z"/>
        <path class="st24" d="M578.06,756.22c.17,6.3-.97,11.42-2.54,11.43-1.58.01-2.99-5.09-3.16-11.39-.17-6.3.97-11.42,2.54-11.43,1.58-.01,2.99,5.09,3.16,11.39Z"/>
        <line class="st20" x1="559.89" y1="768.81" x2="566.38" y2="768.73"/>
        <path class="st9" d="M527.94,802.47"/>
        <path class="st20" d="M562.27,740.81h-.72c-4.05.06-7.41-3.21-7.46-7.25l-.12-8.57c-.05-4.05,3.21-7.41,7.26-7.46h.72c4.05-.06,7.41,3.2,7.46,7.25l.12,8.57c.05,4.05-3.21,7.41-7.26,7.46Z"/>
        <path class="st67" d="M565.25,731.15c-.84,1.91-3.06,2.78-4.97,1.94-1.91-.84-2.78-3.06-1.94-4.97.84-1.91,3.06-2.78,4.97-1.94,1.91.84,2.78,3.06,1.94,4.97"/>
        <line class="st9" x1="609.8" y1="813.12" x2="594.85" y2="806.2"/>
        <line class="st9" x1="610.8" y1="807.15" x2="604.81" y2="810.13"/>
        <line class="st9" x1="612.61" y1="801.69" x2="598.52" y2="794.78"/>
        <line class="st9" x1="613.61" y1="795.73" x2="607.61" y2="798.71"/>
        <line class="st9" x1="614.78" y1="790.06" x2="602.69" y2="784.17"/>
        <line class="st9" x1="615.78" y1="784.09" x2="609.78" y2="787.07"/>
        <path class="st9" d="M606.5,775.69"/>
        <path class="st9" d="M610.4,777.2"/>
        <path class="st9" d="M616.4,774.22"/>
      </g>
    </g>
    <path id="_x31_1" data-name="_x31_" class="st67" d="M784.63,753.1l4.68-.03c2.11-.02,3.82,1.71,3.79,3.82l-.54,34.99c-.03,1.94-1.53,3.54-3.46,3.69l-5.07.4"/>
    <path id="_x31_2" data-name="_x31_" class="st67" d="M665.55,707.23l95.99,1.17c13.27.28,23.8,11.27,23.49,24.54l-1.52,66.5c-.3,13.03-10.93,23.43-23.96,23.45l-94.31-.69c-13.29.02-24.06-10.76-24.03-24.05l-.16-66.98c.03-13.43,11.07-24.22,24.5-23.94"/>
    <path id="_x34_" class="st68" d="M667.77,720.85l90.95.93c7.98.08,14.34,6.68,14.13,14.66l-1.6,60.08c-.2,7.71-6.5,13.87-14.22,13.9l-89.19.35c-7.89.03-14.31-6.35-14.33-14.24l-.16-61.36c-.02-7.96,6.47-14.4,14.42-14.32Z"/>
    <path id="_x35_" class="st65" d="M691.41,767.69c-.14,11.08-2.86,20.1-6.07,20.15-3.21.04-5.7-8.9-5.56-19.99.14-11.08,2.86-20.1,6.07-20.15,3.21-.04,5.7,8.9,5.56,19.99Z"/>
    <path id="_x33_" class="st59" d="M709.78,783.41l10.15.13s.72,9.78-4.66,9.95c0,0-7.49.6-5.49-10.09"/>
    <g id="_x35_1" data-name="_x35_">
      <path class="st15" d="M639.37,751.36l-4.68-.07c-2.11-.03-3.83,1.68-3.81,3.79l.31,34.99c.02,1.94,1.51,3.55,3.44,3.71l5.14.06"/>
      <path class="st15" d="M785.62,753.1l4.68-.03c2.11-.02,3.82,1.71,3.79,3.82l-.54,34.99c-.03,1.94-1.53,3.54-3.46,3.69l-5.07.4"/>
      <path class="st49" d="M665.55,707.23l95.99,1.17c13.27.28,23.8,11.27,23.49,24.54l-1.52,66.5c-.3,13.03-10.93,23.43-23.96,23.45l-94.31-.69c-13.29.02-24.06-10.76-24.03-24.05l-.16-66.98c.03-13.43,11.07-24.22,24.5-23.94Z"/>
      <path class="st49" d="M665.55,707.23l95.99,1.17c13.27.28,23.8,11.27,23.49,24.54l-1.52,66.5c-.3,13.03-10.93,23.43-23.96,23.45l-94.31-.69c-13.29.02-24.06-10.76-24.03-24.05l-.16-66.98c.03-13.43,11.07-24.22,24.5-23.94Z"/>
      <path class="st50" d="M667.77,720.85l90.95.93c7.98.08,14.34,6.68,14.13,14.66l-1.6,60.08c-.2,7.71-6.5,13.87-14.22,13.9l-89.19.35c-7.89.03-14.31-6.35-14.33-14.24l-.16-61.36c-.02-7.96,6.47-14.4,14.42-14.32Z"/>
      <path class="st18" d="M691.41,767.69c-.14,11.08-2.86,20.1-6.07,20.15-3.21.04-5.7-8.9-5.56-19.99.14-11.08,2.86-20.1,6.07-20.15,3.21-.04,5.7,8.9,5.56,19.99Z"/>
      <path class="st19" d="M711.88,783.44l5.9.08c1.28.02,2.31,1.04,2.34,2.31.06,2.9-.51,7.54-4.85,7.67,0,0-6.41.52-5.79-7.88.09-1.24,1.15-2.2,2.4-2.18Z"/>
      <path class="st5" d="M728.64,763.8s15.3-4.56,23.44,7.49"/>
    </g>
    <path id="_x31_3" data-name="_x31_" class="st67" d="M705.22,811.96c1.08,9.43-5.69,17.95-15.12,19.03-9.43,1.08-17.95-5.69-19.03-15.12-1.08-9.43,5.69-17.95,15.12-19.03,9.43-1.08,17.95,5.69,19.03,15.12"/>
    <path id="_x31_4" data-name="_x31_" class="st67" d="M758.15,812.63c1.08,9.43-5.69,17.95-15.12,19.03-9.43,1.08-17.95-5.69-19.03-15.12-1.08-9.43,5.69-17.95,15.12-19.03,9.43-1.08,17.95,5.69,19.03,15.12"/>
    <path id="_x35_2" data-name="_x35_" class="st14" d="M705.22,811.96c1.08,9.43-5.69,17.95-15.12,19.03-9.43,1.08-17.95-5.69-19.03-15.12-1.08-9.43,5.69-17.95,15.12-19.03,9.43-1.08,17.95,5.69,19.03,15.12Z"/>
    <path id="_x35_3" data-name="_x35_" class="st14" d="M758.15,812.63c1.08,9.43-5.69,17.95-15.12,19.03-9.43,1.08-17.95-5.69-19.03-15.12-1.08-9.43,5.69-17.95,15.12-19.03,9.43-1.08,17.95,5.69,19.03,15.12Z"/>
    <path id="_x32_" class="st78" d="M726.42,666.38c-1.07,22.25-19.97,39.42-42.22,38.35-22.25-1.07-39.42-19.97-38.35-42.23,1.07-22.25,19.97-39.42,42.22-38.35,22.25,1.07,39.42,19.97,38.35,42.22Z"/>
    <g id="_x35_4" data-name="_x35_">
      <path class="st0" d="M726.42,666.38c-1.07,22.25-19.97,39.42-42.22,38.35-22.25-1.07-39.42-19.97-38.35-42.23,1.07-22.25,19.97-39.42,42.22-38.35,22.25,1.07,39.42,19.97,38.35,42.22Z"/>
      <path class="st51" d="M676.56,670.13c.65,5.61-.92,10.4-3.52,10.7s-5.23-3.99-5.89-9.6c-.65-5.61.92-10.4,3.52-10.7,2.6-.3,5.23,3.99,5.89,9.6"/>
      <path class="st8" d="M695.15,669.05s7.12-7.38,15.78.23"/>
      <ellipse class="st34" cx="688.65" cy="680.21" rx="1.06" ry="1.99" transform="translate(-23.22 24.34) rotate(-1.99)"/>
      <path class="st33" d="M711.78,697.95c1.68,6.21-1.99,12.6-8.2,14.28-6.21,1.68-12.6-1.99-14.28-8.2-1.68-6.21,1.99-12.6,8.2-14.28,6.21-1.68,12.6,1.99,14.28,8.2Z"/>
      <path class="st33" d="M686.97,698.51c1.68,6.21-1.99,12.6-8.2,14.28-6.21,1.68-12.6-1.99-14.28-8.2-1.68-6.21,1.99-12.6,8.2-14.28,6.21-1.68,12.6,1.99,14.28,8.2Z"/>
    </g>
    <polyline class="st55" points="676.39 636.84 691.75 635.31 691.71 649.65 686.64 651.79 680.97 650.68 680.52 647.53"/>
    <line class="st55" x1="677.88" y1="643.65" x2="691.6" y2="642.05"/>
    <path id="_x36_" class="st74" d="M586.85,635.42c17.3,13.79,20.14,39,6.35,56.3-13.79,17.3-39,20.14-56.3,6.35-17.3-13.79-20.14-39-6.35-56.3,13.79-17.3,39-20.14,56.3-6.35"/>
    <path id="_x35_5" data-name="_x35_" class="st6" d="M586.85,635.42c17.3,13.79,20.14,39,6.35,56.3-13.79,17.3-39,20.14-56.3,6.35-17.3-13.79-20.14-39-6.35-56.3,13.79-17.3,39-20.14,56.3-6.35Z"/>
    <polyline id="_x31_5" data-name="_x31_" class="st54" points="554.26 640.61 569.34 640.91 567.5 655.4 562.15 656.67 556.71 655.18 556.43 651.24"/>
    <g id="_x35_6" data-name="_x35_">
      <path class="st33" d="M587.8,699.36c1.68,6.21-1.99,12.6-8.2,14.28-6.21,1.68-12.6-1.99-14.28-8.2-1.68-6.21,1.99-12.6,8.2-14.28,6.21-1.68,12.6,1.99,14.28,8.2Z"/>
      <path class="st33" d="M562.98,699.92c1.68,6.21-1.99,12.6-8.2,14.28-6.21,1.68-12.6-1.99-14.28-8.2-1.68-6.21,1.99-12.6,8.2-14.28,6.21-1.68,12.6,1.99,14.28,8.2Z"/>
      <ellipse class="st34" cx="562.84" cy="680.85" rx="1.99" ry="1.06" transform="translate(-121.13 1239.89) rotate(-89.68)"/>
      <path class="st8" d="M569.44,666.95s8.91-6.05,15.06,3.7"/>
      <path class="st8" d="M555.41,666.65s-9.28-5.48-14.8,4.64"/>
    </g>
    <g id="_x34_1" data-name="_x34_">
      <path class="st32" d="M740.25,552.65"/>
      <path class="st35" d="M735.3,555.63s-37.66-14.53-22.14-56.15c0,0,9.91-27.74,39.63-23.78,0,0,19.16-20.48,46.9-.66,0,0,14.86-15.52,41.61.66,0,0,22.79-1.32,30.39,15.19,0,0,23.12-4.62,36.33,13.21,0,0,22.45,5.94,26.08,35.33,0,0,14.21,2.98,18.83,18.83,0,0,23.78,15.19,13.21,45.58,0,0-9.91,27.08-46.24,23.78l-9.59,6.61-26.76,96.44s19.93,15.42,23.25,42.06c1.66,13.31-1.87,35.68-12.02,50.79l-.24,42.66c-.06,14.85-12.11,26.86-26.96,26.86h-355.8c-14.97,0-27.07-12.19-26.96-27.16l.45-43.73s-8.58-25.08-4.81-48.57c.75-4.68,1.8-10.11,3.24-14.83,2.01-6.6,3.86-15.94,15.42-18.83,0,0,1.65-4.62,5.28-5.61,0,0-3.96-16.18,4.95-29.39,0,0-22.79-28.07-5.61-64.4,0,0,16.51-40.29,65.72-36.99,0,0,38.31,3.3,53.83,41.94,0,0,10.9-39.63,50.86-45.58,0,0,22.13-4.29,39.63,5.28l21.13-36,.35-13.54Z"/>
    </g>
    <g id="_x31_6" data-name="_x31_">
      <g>
        <path class="st59" d="M717.39,879.75v-35.86h14.8c4.11,0,7.37,1.04,9.78,3.13,2.41,2.09,3.62,4.92,3.62,8.51,0,2.1-.47,3.98-1.42,5.64-.95,1.66-2.29,2.98-4.01,3.98l7.92,14.59h-10.35l-6.31-12.52h-4.55v12.52h-9.47ZM726.86,860.49h4.24c1.52,0,2.7-.41,3.55-1.24.84-.83,1.27-2.02,1.27-3.57,0-3.14-1.64-4.71-4.92-4.71h-4.14v9.52Z"/>
        <path class="st78" d="M680.02,879.75v-35.86h9.99v14.8l11.59-14.8h11.13l-13.51,16.51,14.7,19.36h-11.59l-12.32-16.97v16.97h-9.99Z"/>
        <path d="M584.6,879.75l-1.97-6.93h-10.97l-1.86,6.93h-10.56l12.63-35.86h11.02l12.63,35.86h-10.92ZM573.52,865.77h7.25l-3.67-13.3-3.57,13.3Z"/>
        <path d="M624.29,879.75l-5.07-23.44-4.97,23.44h-10.51l-9.68-35.86h10.97l4.19,24.79,5.12-24.06h10.14l5.12,24.43,4.24-25.15h10.61l-9.63,35.86h-10.56Z"/>
        <path d="M656.43,865.26c-3.28-1.14-5.64-2.57-7.09-4.29-1.45-1.73-2.17-3.99-2.17-6.78,0-2.28.62-4.26,1.86-5.95,1.24-1.69,2.94-2.98,5.1-3.88s4.63-1.35,7.43-1.35c3.62,0,7.06.62,10.3,1.86v7.24c-3.28-.93-6.44-1.4-9.47-1.4-3.55,0-5.33.93-5.33,2.79,0,.69.31,1.28.93,1.76s1.76,1,3.42,1.55l3.1,1.03c3.55,1.17,6.08,2.58,7.58,4.22,1.5,1.64,2.25,3.82,2.25,6.55,0,3.8-1.35,6.75-4.06,8.85-2.71,2.11-6.51,3.16-11.41,3.16-2.11,0-4.14-.18-6.11-.54-1.97-.36-3.64-.85-5.02-1.47v-7.35c1.69.45,3.56.82,5.62,1.11,2.05.29,3.92.44,5.62.44,1.79,0,3.12-.23,3.98-.7.86-.47,1.29-1.2,1.29-2.2,0-.55-.11-1-.34-1.35-.22-.34-.66-.68-1.29-1.01-.64-.33-1.7-.75-3.18-1.27l-3-1.03Z"/>
        <path d="M767.38,880.62c-4.97,0-8.82-1.22-11.57-3.65-2.74-2.43-4.11-5.89-4.11-10.38v-22.72h9.99v23.03c0,1.9.48,3.34,1.45,4.32s2.38,1.48,4.24,1.48c3.83,0,5.74-1.93,5.74-5.8v-23.03h9.99v22.77c0,4.45-1.38,7.89-4.14,10.32-2.76,2.43-6.62,3.65-11.59,3.65Z"/>
        <path d="M809.04,872.76c1.14,0,2.21-.07,3.21-.21v-6.62h-5.95v-6.93h14.85v18.53c-1.69.86-3.8,1.56-6.31,2.1s-5.02.8-7.5.8c-3.76,0-6.98-.73-9.65-2.2-2.67-1.46-4.7-3.56-6.08-6.29-1.38-2.73-2.07-5.97-2.07-9.73,0-6.07,1.68-10.76,5.05-14.05,3.36-3.29,8.12-4.94,14.26-4.94,1.83,0,3.75.22,5.77.65,2.02.43,3.73.99,5.15,1.68v7.25c-1.59-.52-3.3-.93-5.12-1.24-1.83-.31-3.45-.47-4.86-.47-3.45,0-6,.87-7.66,2.61-1.66,1.74-2.48,4.39-2.48,7.94v.78c0,6.9,3.14,10.35,9.42,10.35Z"/>
      </g>
    </g>
  </g>
  <g id="_x23_girl">
    <rect id="_x31_7" data-name="_x31_" class="st67" x="66.81" y="551.22" width="361.98" height="338.86" rx="47.99" ry="47.99"/>
    <path id="_x39_" class="st65" d="M71.77,833.97l356.48-55.32-2.64,88.65-33.03,24.66H108.1s-42.94-2.5-36.33-57.99Z"/>
    <rect id="_x38_" class="st40" x="67.2" y="549.46" width="361.84" height="348.48" rx="50.28" ry="50.28"/>
    <ellipse id="_x38_1" data-name="_x38_" class="st78" cx="344.25" cy="753.36" rx="16.84" ry="20.15"/>
    <path id="_x36_1" data-name="_x36_" class="st64" d="M165.91,729.25c-29.72,8.59-21.8,38.31-21.8,38.31,12.55,41.61,55.49,15.19,55.49,15.19,23.78,26.42,86.53,13.17,86.53,13.17,44.92-10.53,56.79-41.9,56.79-41.9,5.51-12.02,2.58-30.55-1.76-41.93-6.04-15.82-6.9-29.97-6.45-46.92,0,0-72.36-78.61-158.89,3.3l-9.91,60.77Z"/>
    <path id="_x32_2" data-name="_x32_" class="st12" d="M165.91,729.25c-29.72,8.59-21.8,38.31-21.8,38.31,12.55,41.61,55.49,15.19,55.49,15.19,23.78,26.42,86.53,13.17,86.53,13.17,44.92-10.53,56.79-41.9,56.79-41.9,5.51-12.02,2.58-30.55-1.76-41.93-6.04-15.82-6.9-29.97-6.45-46.92,0,0-72.36-78.61-158.89,3.3l-9.91,60.77Z"/>
    <path id="_x38_2" data-name="_x38_" class="st78" d="M341.6,645.34s-33.03-79.93-116.92-48.22c0,0-38.31-6.61-68.7,29.72,0,0-29.06,27.74-29.72,91.16,0,0-2.31,90.83-37.98,115.27l95.86-11.02c7.77-7.53,18.89-13.36,22.05-26.3,4.04-16.57,1.02-32.63-5.94-45.58-9.25-17.17-10.57-39.63-10.57-39.63l15.19-23.12c0-35.67,20.48-47.56,20.48-47.56,0,0-5.28,29.06,1.32,38.97l55.49-13.21,3-13.16,13.51,10.51s23.1-3.64,33.01.32c0,0,.68,22.8,4.64,29.4,0,0,16.51-15.19,5.28-47.56ZM145.42,766.26s-3.25-27.21,21.14-37.36c0,0,9.14,10.02,12.22,23.78,4.07,18.16,3.63,35.34,3.63,35.34-13.7,4.35-28.95,4.9-36.99-21.76Z"/>
    <path id="_x37_" class="st79" d="M186.05,819.74s45.8,8.81,67.82-2.64c0,0-5.28-30.39,6.61-38.31,0,0-24.22-3.96-49.76,6.61l-24.66,34.35Z"/>
    <path id="_x36_2" data-name="_x36_" class="st59" d="M282.5,757.89s2.25-7.87,9.56-8.52c0,0,8.07-1.28,10.42,6.93,0,0,.96,4.1-2.94,5.49-1.51.54-2.81.28-3.86-.27-1.32-.7-3-.31-3.7,1.01s-2.11,2.64-4.33,2.58c-7.07-.2-5.16-7.22-5.16-7.22Z"/>
    <ellipse id="_x31_8" data-name="_x31_" class="st67" cx="315.91" cy="707.46" rx="12.43" ry="18.46" transform="translate(-152.69 90.44) rotate(-13.15)"/>
    <ellipse id="_x31_9" data-name="_x31_" class="st67" cx="241.74" cy="724.23" rx="14.77" ry="19.99" transform="translate(-164.32 77.66) rotate(-13.67)"/>
    <g id="_x32_3" data-name="_x32_">
      <ellipse class="st3" cx="241.74" cy="724.23" rx="14.77" ry="19.99" transform="translate(-164.32 77.66) rotate(-13.67)"/>
      <ellipse class="st4" cx="315.91" cy="707.46" rx="12.43" ry="18.46" transform="translate(-152.69 90.44) rotate(-13.15)"/>
      <path class="st4" d="M211.79,718.9s21.14-12.33,27.3-22.46"/>
      <path class="st17" d="M301.42,683.34s10.55,4.52,23.4,5.42"/>
      <path class="st8" d="M219.38,700.6s24.72-14.04,29.71-32.44"/>
      <path class="st8" d="M280.94,664.42s14.64,13.88,32.72,12.92"/>
      <path class="st8" d="M282.5,757.89s2.25-7.87,9.56-8.52c0,0,8.07-1.28,10.42,6.93,0,0,.96,4.1-2.94,5.49-1.51.54-2.81.28-3.86-.27-1.32-.7-3-.31-3.7,1.01s-2.11,2.64-4.33,2.58c-7.07-.2-5.16-7.22-5.16-7.22Z"/>
      <path class="st10" d="M198.48,751.62c5.68,14.92,8.7,32.45,5.27,45.26-2.05,7.63-5.85,12.2-9.37,15.73-5.48,5.49-12.81,8.76-20.53,9.6l-86.2,10.72c35.67-24.44,37.64-112.94,37.64-112.94.66-63.41,29.72-91.16,29.72-91.16,30.39-36.33,69.36-29.76,69.36-29.76,57.26-21.64,91.52,8.41,106.86,29.08,4.22,5.69,7.98,11.72,10.37,18.41,2.55,7.13,3.9,14.92,3.94,21.85.09,17.93-8.2,27.47-8.2,27.47-1.34-9.89-5.64-30.4-5.64-30.4-9.91-3.96-34.01-.32-34.01-.32l-12.85-11.17-3.66,13.82-53.52,13.21c-7.93-23.45-1.98-47.92-1.98-47.92,0,0-23.83,20.54-22.83,59.2l-17.78,16.81s4.94,18.16,4.94,18.17c2.3,7.82,5.18,15.71,8.47,24.36Z"/>
      <path class="st12" d="M312.19,633.15s14.55,17.5,20.51,31.35"/>
      <path class="st12" d="M162.93,730.57c-25.43,10.57-18.5,37.65-18.5,37.65,6.79,22.52,23.45,24.44,35.01,22.46"/>
      <ellipse class="st11" cx="322.33" cy="701.74" rx="34.56" ry="39.24" transform="translate(-105.43 58.81) rotate(-8.97)"/>
      <ellipse class="st11" cx="233.19" cy="722.38" rx="42.6" ry="41.47" transform="translate(-161.8 74.16) rotate(-13.47)"/>
      <path class="st37" d="M346.26,731.25s9.55,9.23,13.85,20.46"/>
      <line class="st11" x1="274.37" y1="712.71" x2="287.13" y2="709.43"/>
      <path class="st11" d="M165.24,723.96c12.72,27.92,20.81,48.55,13.87,75.3"/>
    </g>
    <polyline id="_x35_7" data-name="_x35_" class="st73" points="304.7 833.68 249.79 830.59 307.83 816.38"/>
    <polyline id="_x33_2" data-name="_x33_" class="st38" points="304.7 833.68 249.79 830.59 307.83 816.38"/>
    <g id="_x36_3" data-name="_x36_">
      <path class="st64" d="M253.86,817.1s-8.37-25.98,6.61-38.31c0,0,19.38-3.52,29.06,5.72,0,0,18.06,22.02-3.96,35.23,0,0-11.89,8.81-19.82.44l-11.89-3.08Z"/>
      <path class="st64" d="M320.8,768.88s-21.8-1.32-24.74,18.62c0,0-4.48,23.29,17.35,24.91"/>
    </g>
    <g id="_x32_4" data-name="_x32_">
      <path class="st12" d="M207.19,785.4s52.84-13.87,72-6.61c0,0,12.64,3.54,15.85,15.19,1.18,4.28,1.65,10.24-1.32,16.51,0,0-9.91,19.16-33.69,6.61,0,0-6.49.64-15.19,2.97-13.54,3.63-37.65,6.94-59.45,1.32"/>
      <path class="st4" d="M260.69,778.46s-18.83,14.53-7.6,38.31"/>
      <path class="st4" d="M244.84,779.12s-15.52,15.52-4.29,39.3"/>
      <path class="st12" d="M320.8,768.88s-21.8-1.32-24.74,18.62c0,0-4.48,23.29,17.35,24.91"/>
    </g>
    <path id="_x35_8" data-name="_x35_" class="st73" d="M406.66,753.77l-19.89,54.88c-1,3.29-3.58,5.75-6.74,6.41l-73.54,18.45c-1.92.4-3.51-1.62-2.82-3.59l21.44-61.02c2.11-6,6.99-10.36,12.87-11.49l61-13.11c5.07-.97,9.28,4.21,7.69,9.47Z"/>
    <g>
      <path class="st78" d="M239.67,876.99v-29.79h8.3v12.29l9.63-12.29h9.24l-11.22,13.71,12.21,16.08h-9.63l-10.23-14.1v14.1h-8.3Z"/>
      <path d="M312.23,877.72c-4.13,0-7.33-1.01-9.61-3.03s-3.42-4.89-3.42-8.62v-18.87h8.3v19.13c0,1.58.4,2.77,1.2,3.59s1.98,1.23,3.52,1.23c3.18,0,4.77-1.61,4.77-4.81v-19.13h8.3v18.91c0,3.7-1.15,6.56-3.44,8.58-2.29,2.02-5.5,3.03-9.63,3.03Z"/>
      <path d="M346.83,871.18c.95,0,1.83-.06,2.67-.17v-5.5h-4.94v-5.76h12.34v15.39c-1.4.72-3.15,1.3-5.24,1.74s-4.17.67-6.23.67c-3.12,0-5.8-.61-8.02-1.83-2.22-1.22-3.91-2.96-5.05-5.22-1.15-2.26-1.72-4.96-1.72-8.08,0-5.04,1.4-8.93,4.19-11.67,2.79-2.74,6.74-4.11,11.84-4.11,1.52,0,3.12.18,4.79.54,1.68.36,3.1.82,4.28,1.4v6.02c-1.32-.43-2.74-.77-4.26-1.03-1.52-.26-2.87-.39-4.04-.39-2.87,0-4.99.72-6.36,2.17-1.38,1.45-2.06,3.65-2.06,6.6v.64c0,5.73,2.61,8.6,7.82,8.6Z"/>
      <path d="M160.4,876.99l-1.63-5.76h-9.11l-1.55,5.76h-8.77l10.49-29.79h9.16l10.49,29.79h-9.07ZM151.21,865.38h6.02l-3.05-11.05-2.97,11.05Z"/>
      <path d="M193.37,876.99l-4.21-19.47-4.13,19.47h-8.73l-8.04-29.79h9.11l3.48,20.59,4.26-19.99h8.43l4.26,20.29,3.52-20.89h8.81l-8,29.79h-8.77Z"/>
      <path d="M220.07,864.95c-2.72-.95-4.69-2.13-5.89-3.57-1.2-1.43-1.81-3.31-1.81-5.63,0-1.89.52-3.54,1.55-4.94,1.03-1.4,2.44-2.48,4.23-3.22s3.85-1.12,6.17-1.12c3.01,0,5.86.52,8.55,1.55v6.02c-2.72-.77-5.35-1.16-7.87-1.16-2.95,0-4.43.77-4.43,2.32,0,.57.26,1.06.77,1.46s1.46.83,2.84,1.29l2.58.86c2.95.97,5.05,2.14,6.3,3.5s1.87,3.17,1.87,5.44c0,3.15-1.12,5.6-3.37,7.35-2.25,1.75-5.41,2.62-9.48,2.62-1.75,0-3.44-.15-5.07-.45-1.63-.3-3.02-.71-4.17-1.22v-6.1c1.4.37,2.96.68,4.66.92,1.7.24,3.26.37,4.66.37,1.49,0,2.59-.19,3.31-.58.72-.39,1.07-1,1.07-1.83,0-.46-.09-.83-.28-1.12-.19-.29-.54-.57-1.07-.84-.53-.27-1.41-.62-2.64-1.05l-2.49-.86Z"/>
      <path id="_x34_2" data-name="_x34_" class="st59" d="M270.71,876.99v-29.79h12.29c3.41,0,6.12.87,8.12,2.6,2.01,1.73,3.01,4.09,3.01,7.07,0,1.75-.39,3.31-1.18,4.69-.79,1.38-1.9,2.48-3.33,3.31l6.58,12.12h-8.6l-5.24-10.4h-3.78v10.4h-7.87ZM278.57,860.99h3.52c1.26,0,2.24-.34,2.94-1.03.7-.69,1.05-1.68,1.05-2.97,0-2.61-1.36-3.91-4.08-3.91h-3.44v7.91Z"/>
    </g>
    <g id="_x33_3" data-name="_x33_">
      <path class="st38" d="M406.66,753.77l-19.89,54.88c-1,3.29-3.58,5.75-6.74,6.41l-73.54,18.45c-1.92.4-3.51-1.62-2.82-3.59l21.44-61.02c2.11-6,6.99-10.36,12.87-11.49l61-13.11c5.07-.97,9.28,4.21,7.69,9.47Z"/>
    </g>
    <path id="_x31_10" data-name="_x31_" class="st62" d="M368.36,787.38c-1.03,3.94-5.29,6.95-9.52,6.72s-6.83-3.61-5.8-7.56c1.03-3.94,5.29-6.95,9.52-6.72s6.83,3.61,5.8,7.56Z"/>
  </g>
  <g id="_x23_ramda">
    <path id="_x38_3" data-name="_x38_" class="st67" d="M547.87,208.18c1.57-14.99,4.74-29.69,10.61-44.72,11.01-28.18,29.72-51.93,52.82-70.38,27.36-21.86,60.74-34.01,94.95-38.17,34.83-4.23,70.65.75,103.2,14.36,46.77,19.55,87.66,57.39,100.23,108.35,5.49,22.25,5.48,45.52,5.45,68.5-.07,40.87-.13,76.93-.2,114.78-.05,29.75-23.15,53.85-51.63,53.85-87.28,0-175.69,0-262.95,0-28.24,0-51.24-23.71-51.62-53.21-.46-35.05-.44-68.5-1.8-106.58-.58-16.29-.64-31.67.94-46.78Z"/>
    <g>
      <path d="M633.43,141.18l-5.89-3.99-8.29,6.96,2.99,6.42-7.98,6.7-13.21-35.12,8.33-6.99,32.3,19.1-8.25,6.93ZM616.2,137.64l5.48-4.6-11.22-7.72,5.74,12.32Z"/>
      <path d="M665.43,123.23l-14.02-19.07,4.98,23.12-9.46,4.24-23.17-28.4,9.88-4.42,13.77,20.64-5.09-23.74,9.14-4.09,14.46,19.94-6.32-24.36,9.56-4.28,5.79,36.18-9.51,4.26Z"/>
      <path d="M691.27,100.7c-3.38-.57-5.91-1.57-7.61-3.01-1.69-1.44-2.77-3.52-3.24-6.24-.38-2.22-.1-4.25.83-6.1.93-1.85,2.37-3.39,4.32-4.62,1.95-1.23,4.28-2.07,7-2.54,3.52-.6,6.97-.56,10.33.11l1.2,7.05c-3.34-.36-6.49-.3-9.44.21-3.46.59-5.03,1.79-4.72,3.6.11.67.51,1.19,1.2,1.56.68.37,1.88.68,3.58.95l3.19.49c3.65.55,6.34,1.5,8.07,2.85,1.73,1.35,2.82,3.35,3.27,6,.63,3.69-.2,6.79-2.49,9.28-2.29,2.5-5.81,4.15-10.58,4.96-2.05.35-4.06.51-6.03.48-1.97-.03-3.68-.23-5.13-.61l-1.21-7.15c1.72.16,3.6.21,5.65.15,2.05-.05,3.89-.22,5.54-.5,1.74-.3,3-.74,3.76-1.34.76-.6,1.06-1.38.89-2.35-.09-.54-.27-.95-.55-1.25-.27-.3-.75-.55-1.42-.77-.68-.21-1.78-.45-3.31-.71l-3.09-.51Z"/>
      <path d="M794.67,128.63c-4.39-2.18-7.27-4.94-8.62-8.3-1.36-3.35-1.05-7.01.91-10.98l9.96-20.08,8.83,4.38-10.1,20.36c-.83,1.68-1.04,3.16-.61,4.46.42,1.29,1.46,2.35,3.1,3.16,3.39,1.68,5.93.81,7.62-2.6l10.1-20.36,8.83,4.38-9.99,20.13c-1.95,3.93-4.68,6.37-8.19,7.31-3.51.94-7.46.32-11.85-1.86Z"/>
      <path d="M831.64,144.43c.85.74,1.69,1.38,2.53,1.92l4.28-4.94-4.44-3.85,4.48-5.17,11.07,9.61-11.98,13.81c-1.82-.45-3.84-1.29-6.06-2.52-2.22-1.23-4.26-2.65-6.11-4.25-2.8-2.43-4.73-5.06-5.77-7.88-1.04-2.82-1.2-5.7-.47-8.62.73-2.92,2.32-5.79,4.75-8.59,3.93-4.53,8.21-6.93,12.85-7.21,4.64-.28,9.25,1.57,13.82,5.54,1.36,1.18,2.66,2.59,3.88,4.21,1.22,1.63,2.14,3.15,2.75,4.58l-4.69,5.4c-.85-1.41-1.85-2.83-3.02-4.24-1.16-1.41-2.27-2.58-3.32-3.49-2.57-2.23-5.04-3.23-7.4-3s-4.69,1.67-6.99,4.31l-.5.58c-4.46,5.14-4.35,9.74.33,13.81Z"/>
      <path class="st78" d="M715.06,111.44l1.05-35.37,9.85.29-.43,14.6,11.87-14.26,10.97.33-13.81,15.89,13.93,19.52-11.43-.34-11.65-17.1-.5,16.74-9.85-.29Z"/>
      <path id="_x31_2" class="st59" d="M750.13,113.23l8.28-34.41,14.2,3.42c3.94.95,6.83,2.7,8.66,5.26s2.34,5.56,1.51,9c-.49,2.02-1.37,3.71-2.67,5.08-1.29,1.37-2.88,2.34-4.77,2.9l4.23,15.83-9.93-2.39-3.17-13.47-4.37-1.05-2.89,12.02-9.09-2.19ZM763.66,96.94l4.07.98c1.46.35,2.69.23,3.69-.37,1-.6,1.68-1.64,2.04-3.13.72-3.01-.49-4.9-3.63-5.65l-3.97-.96-2.2,9.14Z"/>
    </g>
    <path id="_x31_1" class="st76" d="M802.87,362.19c29.36,17.16,50.95-3.51,50.95-3.51,24.24-20.61,7.18-56.66,7.18-56.66,25.18-3.41,29.61-24.46,29.61-24.46,5.27-20.74-4.07-41.88-24.69-49.43-26.87-9.84-41.26,13.63-41.26,13.63l-48.74,60.87,26.95,59.56Z"/>
    <path id="_x33_4" data-name="_x33_" class="st30" d="M802.87,362.19c29.36,17.16,50.95-3.51,50.95-3.51,24.24-20.61,7.18-56.66,7.18-56.66,25.18-3.41,29.61-24.46,29.61-24.46,5.27-20.74-4.07-41.88-24.69-49.43-26.87-9.84-41.26,13.63-41.26,13.63l-48.74,60.87,26.95,59.56Z"/>
    <path id="_x37_1" data-name="_x37_" class="st61" d="M575.17,348.59s18.17,26.42,40.95,15.52c0,0,13.54-5.94,15.52-17.5,0,0,4.95-14.53-13.87-35.01"/>
    <path id="_x36_4" data-name="_x36_" class="st81" d="M573.16,317.6s-9.5-8.72-.87-16.24c0,0,7.61-6.91,15.69,3.73,0,0,15.22-9.57,28.89,1.15,2.29,1.8,2.76,5.09,1.15,7.51-4.98,7.51-17.88,23.59-42.21,33.74-2.78,1.16-5.99,0-7.32-2.7-2.8-5.7-5.39-16.16,4.67-27.2Z"/>
    <g id="_x34_3" data-name="_x34_">
      <path id="_x31_0" class="st83" d="M659.12,341.65c-7.82,11.24-7.97,20.74-5.86,27.72,2.91,9.63,9.83,14.93,19.16,17.46,11.63,3.16,24.04,2.08,32.13-1.09,3.23-1.27,5.98-2.72,8.32-4.19,6.87-4.33,15.57-4.07,22.45.24,13.21,8.27,27.2,7.19,27.25,7.19,23.56,1.18,47.02-16.64,38.77-43.06-5.29-16.95-18.19-34.69-18.19-34.69,56.55-17.92,39.7-77.44,39.7-77.44-8.94-44.46-33.61-64.5-33.61-64.5l-.39-12.22c-2.17-21.85-22.64-22.3-22.64-22.3-23.1-1.17-26.27,23.21-26.27,23.21-13.15-2.93-27.38-1.26-27.38-1.26-1.45-24.48-23.29-22.62-23.29-22.62-9.9-.57-20.95,5.79-23.85,17.62-1.27,5.17-1.28,13.85-1.28,13.85-35.56,24.99-29.83,65.06-29.83,65.06,0,0-21.06,11.13-19.01,38.26,0,0,1.29,33.36,42.08,41.52"/>
    </g>
    <g id="_x35_9" data-name="_x35_">
      <path class="st73" d="M699.99,306.75l27.75-6.09c5.68-1.25,11.3,2.32,12.58,7.99l8.25,36.47c1.29,5.72-2.31,11.39-8.03,12.66l-26.44,5.84c-5.54,1.22-11.06-2.14-12.5-7.63l-9.56-36.22c-1.54-5.81,2.08-11.74,7.96-13.03Z"/>
    </g>
    <path id="_x31_11" data-name="_x31_" class="st43" d="M699.99,306.75l27.75-6.09c5.68-1.25,11.3,2.32,12.58,7.99l8.25,36.47c1.29,5.72-2.31,11.39-8.03,12.66l-26.44,5.84c-5.54,1.22-11.06-2.14-12.5-7.63l-9.56-36.22c-1.54-5.81,2.08-11.74,7.96-13.03Z"/>
    <path id="_x34_4" data-name="_x34_" class="st83" d="M751.46,310.23c-11.23.66-16.5,11.89-15.08,21.82,2.54,17.84,23.39,22.98,34.55,9.45"/>
    <g id="_x38_4" data-name="_x38_">
      <path id="_x38_5" data-name="_x38_" class="st67" d="M707.21,279.5l.18,8.12c.06,2.5,2.07,4.51,4.56,4.56l8.04.18c2.58.06,4.71-1.99,4.77-4.56l.2-9.22"/>
      <circle class="st67" cx="720.12" cy="332.02" r="6.81"/>
      <path id="_x33_5" data-name="_x33_" class="st67" d="M611.21,337.73l-1.67-2.03-2.8,2.31s-1.42,1.32-1.03,3.73l2.14,7.86.78,3.07s.42,1.62-.53,2.4l-.64.6,1.74,2.12s.69-.57,1.19-.97c.51-.42.82-.82,1.2-1.36.43-.61.98-1.74.57-3.2l-1.82-5.63,7.67,3.7,2.85-2.34-9.16-4.14-1.18-.62c-.42-.22-.85-.44-1.15-.87-.32-.47-.63-1.27-.29-2.38.12-.38.24-.7.55-.95l1.58-1.3Z"/>
    </g>
    <ellipse id="_x39_1" data-name="_x39_" class="st23" cx="713.76" cy="252.22" rx="3.63" ry="5.61" transform="translate(446 960.3) rotate(-88.75)"/>
    <g id="_x33_6" data-name="_x33_">
      <path class="st28" d="M659.12,341.65c-7.82,11.24-7.97,20.74-5.86,27.72,2.91,9.63,9.83,14.93,19.16,17.46,11.63,3.16,24.04,2.08,32.13-1.09,3.23-1.27,5.98-2.72,8.32-4.19,6.87-4.33,15.57-4.07,22.45.24,13.21,8.27,27.2,7.19,27.25,7.19,23.56,1.18,47.02-16.64,38.77-43.06-5.29-16.95-18.19-34.69-18.19-34.69,56.55-17.92,39.7-77.44,39.7-77.44-8.94-44.46-33.61-64.5-33.61-64.5l-.39-12.22c-2.17-21.85-22.64-22.3-22.64-22.3-23.1-1.17-26.27,23.21-26.27,23.21-13.15-2.93-27.38-1.26-27.38-1.26-1.45-24.48-23.29-22.62-23.29-22.62-9.9-.57-20.95,5.79-23.85,17.62-1.27,5.17-1.28,13.85-1.28,13.85-35.56,24.99-29.83,65.06-29.83,65.06,0,0-21.06,11.13-19.01,38.26,0,0,1.29,33.36,42.08,41.52"/>
      <path class="st28" d="M751.46,310.23c-11.23.66-16.5,11.89-15.08,21.82,2.54,17.84,23.39,22.98,34.55,9.45"/>
      <path class="st11" d="M573.16,317.6s-9.5-8.72-.87-16.24c0,0,7.61-6.91,15.69,3.73,0,0,15.22-9.57,28.89,1.15,2.29,1.8,2.76,5.09,1.15,7.51-4.98,7.51-17.88,23.59-42.21,33.74-2.78,1.16-5.99,0-7.32-2.7-2.8-5.7-5.39-16.16,4.67-27.2Z"/>
      <line class="st29" x1="740.16" y1="156.33" x2="739.49" y2="166.98"/>
      <line class="st29" x1="712.3" y1="155.66" x2="712.3" y2="166.33"/>
      <path class="st47" d="M702.63,272.79s3.35,8,12.6,7.76c0,0,10.11,1.1,12.93-7.32"/>
      <path class="st11" d="M575.17,348.59s18.17,26.42,40.95,15.52c0,0,13.54-5.94,15.52-17.5,0,0,4.95-14.53-13.87-35.01"/>
      <path class="st47" d="M707.21,279.5l.18,8.12c.06,2.5,2.07,4.51,4.56,4.56l8.04.18c2.58.06,4.71-1.99,4.77-4.56l.2-9.22"/>
      <path class="st30" d="M866.91,273.74s3.53-10.49-8.96-13.41c0,0-8.17-.18-11.29,6.43-3.2,6.79.8,11.73,3.91,17.44,2.78,5.1,7.26,11.8,10.43,17.82"/>
      <ellipse class="st27" cx="750.15" cy="249.7" rx="21.19" ry="6.8" transform="translate(482.19 993.52) rotate(-88.6)"/>
      <ellipse class="st27" cx="679.18" cy="247.49" rx="21.19" ry="6.8" transform="translate(415.16 920.42) rotate(-88.6)"/>
    </g>
    <path id="_x34_5" data-name="_x34_" class="st83" d="M657.94,310.85s-4.36,7.91-4.26,18.74c.1,10.83,6.66,23.57,24.49,23.24,0,0,21.78.34,20.73-19.2,0,0-.28-8.19-8.93-16.66"/>
    <path id="_x33_7" data-name="_x33_" class="st28" d="M657.94,310.85s-4.36,7.91-4.26,18.74c.1,10.83,6.66,23.57,24.49,23.24,0,0,21.78.34,20.73-19.2,0,0-.28-8.19-8.93-16.66"/>
    <g id="_x32_6" data-name="_x32_">
      <path class="st65" d="M647.33,178.78s-10.57,11.01-13.21,27.3l183.63,2.64s-5.06-16.51-14.09-26.86c0,0-155.89-3.52-156.33-3.08Z"/>
      <path class="st58" d="M546.17,205.05c1.57-14.99,4.74-29.69,10.61-44.72,11.01-28.18,29.72-51.93,52.82-70.38,27.36-21.86,60.74-34.01,94.95-38.17,34.83-4.23,70.65.75,103.2,14.36,46.77,19.55,87.66,57.39,100.23,108.35,5.49,22.25,5.48,45.52,5.45,68.5-.07,40.87-.13,76.93-.2,114.78-.05,29.75-23.15,53.85-51.63,53.85-87.28,0-175.69,0-262.95,0-28.24,0-51.24-23.71-51.62-53.21-.46-35.05-.44-68.5-1.8-106.58-.58-16.29-.64-31.67.94-46.78Z"/>
    </g>
    <g id="_x31_12" data-name="_x31_">
      <path class="st46" d="M645.13,181.92s-8.6,9.63-11.23,25.93l182.97-.33s-5.24-15.41-14.2-25.76c0,0-157.48.16-157.54.17Z"/>
    </g>
  </g>
  <g id="_x23_gurumi_x5F_macbook">
    <g id="_x38_6" data-name="_x38_">
      <circle class="st67" cx="245.88" cy="261.71" r="194.56"/>
    </g>
    <g id="_x39_2" data-name="_x39_">
      <path class="st82" d="M158.21,215.81s3.63-80,82.71-82.9c0,0,77.26-11.73,91.75,82.84,0,0,29.69,3.8,47.2,34.86,6.12,10.86,10.17,24.3,9.58,36.88-.37,7.82-2.36,19.49-7.75,29.88-23.27,44.83-82.07,52.96-82.07,52.96-44.85,9.01-93.72,1.74-93.72,1.74-31.19-5.4-50.93-13.9-66.35-23.17-13.22-7.95-20.56-16.47-25.93-24.07-9.34-13.2-10.67-26.85-10.67-26.85-1.5-8.41-.77-13.12-.02-20.02,0,0,2.92-44.82,55.26-62.14Z"/>
    </g>
    <g id="_x38_7" data-name="_x38_">
      <g id="_x37_-1">
        <path class="st67" d="M319.96,277.35c.17,36.31-11.59,65.8-26.26,65.86-14.67.07-26.7-29.31-26.86-65.62-.17-36.31,11.59-65.8,26.26-65.86,14.67-.07,26.7,29.31,26.86,65.62Z"/>
      </g>
      <g id="_x37_-11" data-name="_x37_-1">
        <path class="st67" d="M225.58,277.51c.17,36.31-11.59,65.8-26.26,65.86-14.67.07-26.7-29.31-26.86-65.62-.17-36.31,11.59-65.8,26.26-65.86,14.67-.07,26.7,29.31,26.86,65.62Z"/>
      </g>
    </g>
    <g id="_x37_2" data-name="_x37_">
      <path class="st1" d="M225.58,277.51c.17,36.31-11.59,65.8-26.26,65.86-14.67.07-26.7-29.31-26.86-65.62-.17-36.31,11.59-65.8,26.26-65.86,14.67-.07,26.7,29.31,26.86,65.62Z"/>
      <path class="st1" d="M319.96,277.35c.17,36.31-11.59,65.8-26.26,65.86-14.67.07-26.7-29.31-26.86-65.62-.17-36.31,11.59-65.8,26.26-65.86,14.67-.07,26.7,29.31,26.86,65.62Z"/>
      <path class="st25" d="M221.64,278.49c.09,24.57-5.78,44.51-13.12,44.54-7.33.03-13.35-19.87-13.44-44.44-.09-24.57,5.78-44.51,13.11-44.54,7.34-.03,13.36,19.87,13.45,44.44Z"/>
      <path class="st25" d="M296.18,278.54c.09,24.57-5.78,44.51-13.12,44.54-7.33.03-13.35-19.87-13.44-44.44-.09-24.57,5.78-44.51,13.11-44.54,7.34-.03,13.36,19.87,13.45,44.44Z"/>
      <path class="st7" d="M236.36,310.74s3.76,5.23,10.37,5.22c0,0,7.26.27,10.33-5.68"/>
      <path class="st48" d="M158.21,215.81s3.63-80,82.71-82.9c0,0,77.26-11.73,91.75,82.84,0,0,29.69,3.8,47.2,34.86,6.12,10.86,10.17,24.3,9.58,36.88-.37,7.82-2.36,19.49-7.75,29.88-23.27,44.83-82.07,52.96-82.07,52.96-44.85,9.01-93.72,1.74-93.72,1.74-31.19-5.4-50.93-13.9-66.35-23.17-13.22-7.95-20.56-16.47-25.93-24.07-9.34-13.2-10.67-26.85-10.67-26.85-1.5-8.41-.77-13.12-.02-20.02,0,0,2.92-44.82,55.26-62.14Z"/>
    </g>
    <g id="_x36_5" data-name="_x36_">
      <g id="Layer_36">
        <path class="st57" d="M318.33,83.08c1.28-7.21-3.69-14.03-10.95-15.02l-88.36-11.96c-8.41-1.14-13.5,3.08-14.98,11.43l-1.51,13.19"/>
      </g>
      <circle class="st56" cx="244.8" cy="263.71" r="194.56"/>
    </g>
    <g id="_x31_01" data-name="_x31_0">
      <path id="_x34_6" data-name="_x34_" class="st75" d="M197.6,122.78c-.08.48-.3.93-.63,1.28l-25.9,27.35c-5.14,5.68-2.83,13.45,4.71,14.78l92.19,16.12c5.86,1.04,11.83-1.08,15.72-5.58l22.78-31.37c1.38-1.7,2.32-3.73,2.71-5.89l8.91-55.1c1.28-7.21-3.69-14.03-10.95-15.02l-88.36-11.96c-8.41-1.14-13.5,3.08-14.98,11.43l-6.18,53.97Z"/>
    </g>
    <polygon id="_x38_8" data-name="_x38_" class="st67" points="186.28 155.09 205.2 134.83 286.53 148.22 270.24 169.28 186.28 155.09"/>
    <g id="_x33_8" data-name="_x33_">
      <path class="st72" d="M217.43,66.02l87.36,12.82c2.52.35,4.24,2.72,3.79,5.22l-6.4,44.19c-.43,2.4-2.69,4.03-5.11,3.65l-86.25-13.38c-2.5-.39-4.19-2.77-3.72-5.26l5.29-43.62c.44-2.36,2.66-3.95,5.03-3.61Z"/>
    </g>
    <g id="_x32_7" data-name="_x32_">
      <path class="st39" d="M197.6,122.78c-.08.48-.3.93-.63,1.28l-25.9,27.35c-5.14,5.68-2.83,13.45,4.71,14.78l92.19,16.12c5.86,1.04,11.83-1.08,15.72-5.58l22.78-31.37c1.38-1.7,2.32-3.73,2.71-5.89l8.91-55.1c1.28-7.21-3.69-14.03-10.95-15.02l-88.36-11.96c-8.41-1.14-13.5,3.08-14.98,11.43l-6.18,53.97Z"/>
      <line class="st42" x1="197.03" y1="124.69" x2="306.77" y2="142.34"/>
      <path class="st78" d="M216.8,69.82s.06,0,.07,0l87.39,12.82c.23.03.36.16.44.26.07.1.15.27.11.5,0,.04-.01.08-.02.12l-6.39,44.1c-.08.33-.38.51-.63.51-.03,0-.07,0-.11,0l-86.25-13.38c-.23-.04-.36-.16-.43-.27-.07-.1-.15-.27-.11-.5.02-.08.03-.16.04-.25l5.27-43.44c.09-.3.37-.46.62-.46M216.8,65.98c-2.13,0-4,1.51-4.4,3.66l-5.29,43.62c-.47,2.49,1.22,4.87,3.72,5.26l86.25,13.38c.23.04.46.05.69.05,2.14,0,4.03-1.53,4.41-3.71l6.4-44.19c.44-2.5-1.28-4.87-3.79-5.22l-87.36-12.82c-.21-.03-.42-.04-.63-.04h0Z"/>
      <polygon class="st41" points="186.28 155.09 205.2 134.83 286.53 148.22 270.24 169.28 186.28 155.09"/>
      <line class="st41" x1="197.8" y1="157" x2="215.91" y2="137.96"/>
      <line class="st41" x1="211.12" y1="158.98" x2="228.22" y2="139.01"/>
      <line class="st41" x1="223.01" y1="160.54" x2="239.37" y2="140.9"/>
      <line class="st41" x1="234.88" y1="162.82" x2="250.87" y2="143.17"/>
      <line class="st41" x1="246.38" y1="165.09" x2="262.74" y2="145.46"/>
      <line class="st41" x1="259.02" y1="165.96" x2="274.99" y2="147.03"/>
      <line class="st41" x1="199.44" y1="141.72" x2="280.49" y2="154.49"/>
      <line class="st41" x1="193.37" y1="147.98" x2="274.78" y2="161.75"/>
      <line class="st41" x1="218.08" y1="166.31" x2="232.94" y2="168.88"/>
    </g>
    <g id="_x31_13" data-name="_x31_">
      <g>
        <path class="st63" d="M145.56,404.15l2-6.03-8-5.43-4.79,4.13-7.7-5.23,26.97-19.9,8.04,5.46-8.56,32.41-7.96-5.41ZM144.4,388.48l5.28,3.59,3.91-11.52-9.19,7.93Z"/>
        <path class="st63" d="M180.69,421.57l3.57-20.84-11.78,17.54-8.59-3.46,3.89-32.52,8.97,3.61-4.73,21.65,12.11-18,8.3,3.34-3.85,21.66,11.75-19.17,8.68,3.49-19.67,26.17-8.64-3.47Z"/>
        <path class="st63" d="M214.17,417.77c-2.68-1.48-4.52-3.07-5.52-4.79-1-1.71-1.3-3.79-.88-6.21.34-1.98,1.17-3.61,2.5-4.9,1.33-1.28,3-2.16,5.01-2.61,2.01-.46,4.23-.48,6.65-.06,3.15.54,6.04,1.59,8.67,3.15l-1.08,6.29c-2.71-1.3-5.38-2.17-8.02-2.62-3.09-.53-4.77.02-5.05,1.64-.1.6.08,1.16.55,1.67.47.51,1.38,1.13,2.74,1.86l2.55,1.36c2.91,1.55,4.9,3.15,5.96,4.79,1.06,1.65,1.39,3.66.98,6.02-.57,3.3-2.18,5.66-4.85,7.09s-6.13,1.77-10.38,1.05c-1.83-.31-3.57-.77-5.23-1.38-1.65-.61-3.04-1.28-4.14-2.03l1.09-6.39c1.4.64,2.97,1.24,4.71,1.8,1.74.56,3.35.96,4.81,1.22,1.56.27,2.75.26,3.57-.01.82-.28,1.3-.85,1.45-1.72.08-.48.05-.89-.09-1.22-.14-.33-.47-.69-.97-1.07-.51-.38-1.37-.9-2.58-1.57l-2.45-1.35Z"/>
        <path class="st63" d="M319,420.86c-4.07,1.62-7.63,1.87-10.66.77-3.04-1.1-5.29-3.49-6.74-7.17l-7.38-18.62,8.19-3.25,7.48,18.87c.62,1.56,1.48,2.58,2.59,3.07,1.11.49,2.43.43,3.96-.17,3.14-1.24,4.08-3.45,2.83-6.62l-7.48-18.87,8.19-3.25,7.4,18.66c1.45,3.65,1.43,6.92-.04,9.81s-4.24,5.14-8.31,6.76Z"/>
        <path class="st63" d="M351.3,396.1c.84-.55,1.6-1.11,2.27-1.69l-3.18-4.9-4.4,2.85-3.33-5.13,10.99-7.12,8.88,13.71c-.84,1.45-2.06,2.98-3.67,4.58-1.61,1.6-3.33,3-5.17,4.19-2.78,1.8-5.51,2.8-8.2,3-2.68.2-5.19-.38-7.51-1.74-2.33-1.35-4.39-3.42-6.2-6.21-2.91-4.49-3.91-8.76-3-12.81.91-4.05,3.64-7.55,8.18-10.49,1.35-.88,2.88-1.64,4.58-2.29,1.7-.65,3.24-1.06,4.62-1.22l3.47,5.36c-1.42.38-2.89.89-4.39,1.54s-2.78,1.31-3.82,1.99c-2.55,1.65-4.02,3.52-4.41,5.61-.39,2.08.27,4.44,1.97,7.07l.37.57c3.31,5.1,7.28,6.15,11.93,3.14Z"/>
        <path class="st78" d="M236.16,433.81l-.26-31.62,8.8-.07.11,13.05,10.11-13.13,9.81-.08-11.79,14.65,13.1,16.96-10.22.08-10.98-14.88.12,14.96-8.8.07Z"/>
        <path class="st59" d="M273.1,432.56l-6.55-30.93,12.77-2.7c3.54-.75,6.54-.45,9.01.91s4.02,3.59,4.68,6.68c.38,1.82.32,3.52-.2,5.13-.52,1.6-1.43,2.99-2.73,4.17l9.5,11.14-8.93,1.89-7.73-9.65-3.93.83,2.29,10.8-8.17,1.73ZM277.75,414.23l3.66-.78c1.31-.28,2.25-.85,2.83-1.72.58-.87.72-1.97.44-3.31-.57-2.71-2.27-3.76-5.1-3.16l-3.57.76,1.74,8.21Z"/>
      </g>
      <path class="st60" d="M254.42,267.22c.19,4.42-3.23,8.15-7.64,8.35-4.42.19-8.16-3.23-8.35-7.65s3.23-8.15,7.64-8.35c4.42-.2,8.16,3.23,8.35,7.64Z"/>
      <path class="st59" d="M254.42,267.22c.19,4.42-3.23,8.15-7.64,8.35-4.42.19-8.16-3.23-8.35-7.65s3.23-8.15,7.64-8.35c4.42-.2,8.16,3.23,8.35,7.64"/>
    </g>
    <g id="_x31_11" data-name="_x31_1">
      <path class="st45" d="M280.93,92.07s-7.62-2.5-9.09,3.47c0,0-1.42,5.01,5.3,6.02,0,0-5.85,1.2-6.01,5.05,0,0-1.44,5.49,7.72,5.89"/>
      <path class="st45" d="M240.83,86.13s-7.62-2.5-9.09,3.47c0,0-1.42,5.01,5.3,6.02,0,0-5.85,1.2-6.01,5.05,0,0-1.44,5.49,7.72,5.89"/>
      <line class="st45" x1="250.06" y1="110.31" x2="259.18" y2="111.67"/>
    </g>
  </g>
</svg>