<?xml version="1.0" encoding="UTF-8"?>
<svg xmlns="http://www.w3.org/2000/svg" xmlns:xlink="http://www.w3.org/1999/xlink" version="1.1" viewBox="0 0 1000 1000">
  <defs>
    <style>
      .cls-1, .cls-2, .cls-3, .cls-4, .cls-5, .cls-6, .cls-7, .cls-8, .cls-9 {
        fill: none;
      }

      .cls-2 {
        stroke-width: 15.08px;
      }

      .cls-2, .cls-3, .cls-4 {
        stroke-linecap: round;
      }

      .cls-2, .cls-3, .cls-4, .cls-5 {
        stroke-linejoin: round;
      }

      .cls-2, .cls-3, .cls-4, .cls-5, .cls-6, .cls-7, .cls-8 {
        stroke: #000;
      }

      .cls-3 {
        stroke-width: 14.54px;
      }

      .cls-4 {
        stroke-width: 15.43px;
      }

      .cls-10 {
        fill: #ff3cb3;
      }

      .cls-11 {
        fill: #fff;
      }

      .cls-5 {
        stroke-width: 8.18px;
      }

      .cls-12 {
        fill: #abfff7;
      }

      .cls-6 {
        stroke-width: 15.68px;
      }

      .cls-6, .cls-7, .cls-8, .cls-9 {
        stroke-miterlimit: 10;
      }

      .cls-7 {
        stroke-width: 28.1px;
      }

      .cls-8 {
        stroke-width: 16.89px;
      }

      .cls-9 {
        stroke: #ff4acc;
        stroke-width: 19.37px;
      }

      .cls-13 {
        clip-path: url(#clippath);
      }

      .cls-14 {
        fill: #ff6aaa;
      }
    </style>
    <clipPath id="clippath">
      <rect class="cls-1" x="91.47" y="73.09" width="907.05" height="831.49"/>
    </clipPath>
  </defs>
  <!-- Generator: Adobe Illustrator 28.7.5, SVG Export Plug-In . SVG Version: 1.2.0 Build 176)  -->
  <g>
    <g id="Layer_1">
      <g class="cls-13">
        <path class="cls-11" d="M347.78,657.54l-10.39,112.13s-40.25,27.51-33.49,67.68c3.42,20.28,17.19,34.03,34.14,44.11,16.69,9.92,41.6,18.48,75.42,14.34,14.44-1.76,30.04-5.79,41.73-14.86,14.23-11.04,29.68-32.13,29.68-71.66l-.43-131.1-136.66-20.65Z"/>
        <path class="cls-4" d="M347.78,657.54l-10.39,112.13s-40.25,27.51-33.49,67.68c3.42,20.28,17.19,34.03,34.14,44.11,16.69,9.92,41.6,18.48,75.42,14.34,14.44-1.76,30.04-5.79,41.73-14.86,14.23-11.04,29.68-32.13,29.68-71.66l-.43-131.1-136.66-20.65Z"/>
        <path class="cls-11" d="M615.98,655.82l18.18,112.91s40.25,27.51,33.49,67.68c-3.42,20.28-17.19,34.04-34.14,44.11-16.69,9.92-41.6,18.48-75.42,14.34-14.44-1.76-30.04-5.79-41.73-14.86-14.23-11.04-29.68-32.13-29.68-71.66l-2.23-128.43,131.54-24.09Z"/>
        <path class="cls-4" d="M615.98,655.82l18.18,112.91s40.25,27.51,33.49,67.68c-3.42,20.28-17.19,34.04-34.14,44.11-16.69,9.92-41.6,18.48-75.42,14.34-14.44-1.76-30.04-5.79-41.73-14.86-14.23-11.04-29.68-32.13-29.68-71.66l-2.23-128.43,131.54-24.09Z"/>
        <path class="cls-11" d="M220.9,612.84c-6.58,26.1-55.1,68.76-70.32,108.04-8.89,22.93-12.16,52.23,2.2,73.51,18.96,28.08,60.76,41.44,94.7,32.59,27.56-7.18,45.6-27.98,50.83-55.74,1.87-9.93,2.75-22.3,1.4-37.31,0,0,11.87-47.04,43.66-79.4"/>
        <path class="cls-3" d="M220.9,612.84c-6.58,26.1-55.1,68.76-70.32,108.04-8.89,22.93-12.16,52.23,2.2,73.51,18.96,28.08,60.76,41.44,94.7,32.59,27.56-7.18,45.6-27.98,50.83-55.74,1.87-9.93,2.75-22.3,1.4-37.31,0,0,11.87-47.04,43.66-79.4"/>
        <path class="cls-12" d="M231.88,326.9s-7.94-209.44,202.85-230.26c0,0,209.1-33.02,249.79,198.2,0,0,91.81,11.75,136.11,94.45,0,0,46.03,97.46-29.76,186.64-30.96,36.43-70.91,58.23-114.81,75.24-72.67,28.17-206.08,64-361.3,30.6-39.61-8.52-80.34-19.86-115.09-41.26-44.97-27.69-102.03-83.1-86.57-181.73,0,0,17.15-101.29,118.79-131.89"/>
        <path class="cls-7" d="M231.88,326.9s-7.94-209.44,202.85-230.26c0,0,209.1-33.02,249.79,198.2,0,0,91.81,11.75,136.11,94.45,0,0,46.03,97.46-29.76,186.64-30.96,36.43-70.91,58.23-114.81,75.24-72.67,28.17-206.08,64-361.3,30.6-39.61-8.52-80.34-19.86-115.09-41.26-44.97-27.69-102.03-83.1-86.57-181.73,0,0,17.15-101.29,118.79-131.89Z"/>
        <path class="cls-11" d="M658.55,436.04c6.4,90.58-19.79,166.23-58.51,168.97-38.72,2.73-75.29-68.48-81.7-159.06-6.4-90.58,19.8-166.22,58.51-168.96,38.72-2.74,75.3,68.47,81.7,159.05"/>
        <path class="cls-6" d="M658.55,436.04c6.4,90.58-19.79,166.23-58.51,168.97-38.72,2.73-75.29-68.48-81.7-159.06-6.4-90.58,19.8-166.22,58.51-168.96,38.72-2.74,75.3,68.47,81.7,159.05Z"/>
        <path class="cls-11" d="M423.94,452.62c6.4,90.58-19.79,166.23-58.51,168.97-38.72,2.73-75.29-68.48-81.7-159.06-6.4-90.58,19.8-166.22,58.51-168.96,38.72-2.74,75.3,68.47,81.7,159.05"/>
        <path class="cls-6" d="M423.94,452.62c6.4,90.58-19.79,166.23-58.51,168.97-38.72,2.73-75.29-68.48-81.7-159.06-6.4-90.58,19.8-166.22,58.51-168.96,38.72-2.74,75.3,68.47,81.7,159.05Z"/>
        <path d="M604.27,447.04c4.7,66.46-8.91,121.58-30.39,123.09-21.48,1.52-42.69-51.13-47.39-117.6-4.7-66.46,8.91-121.58,30.38-123.09,21.48-1.52,42.7,51.13,47.4,117.6"/>
        <path class="cls-8" d="M604.27,447.04c4.7,66.46-8.91,121.58-30.39,123.09-21.48,1.52-42.69-51.13-47.39-117.6-4.7-66.46,8.91-121.58,30.38-123.09,21.48-1.52,42.7,51.13,47.4,117.6Z"/>
        <path d="M418.02,458.9c4.7,66.46-8.91,121.58-30.39,123.09-21.48,1.52-42.69-51.13-47.39-117.6-4.7-66.46,8.91-121.58,30.38-123.09,21.48-1.52,42.7,51.13,47.4,117.6"/>
        <path class="cls-8" d="M418.02,458.9c4.7,66.46-8.91,121.58-30.39,123.09-21.48,1.52-42.69-51.13-47.39-117.6-4.7-66.46,8.91-121.58,30.38-123.09,21.48-1.52,42.7,51.13,47.4,117.6Z"/>
        <path class="cls-10" d="M480.82,435.58c.4,5.72-3.84,10.67-9.46,11.07-5.64.4-10.53-3.91-10.93-9.63-.41-5.72,3.83-10.68,9.46-11.07,5.64-.4,10.53,3.91,10.93,9.63"/>
        <path class="cls-9" d="M479.53,427.83c.4,5.72-3.84,10.67-9.46,11.07-5.64.4-10.53-3.91-10.93-9.63-.41-5.72,3.83-10.68,9.46-11.07,5.64-.4,10.53,3.91,10.93,9.63Z"/>
        <path class="cls-14" d="M463.23,528.45c6.52.72,17.07,1.17,27.41-1.52,3.43-.88,6.88,1.22,7.17,4.32,1.07,11.02.84,32.56-16.91,33.71,0,0-22.13,3.71-24.03-31.28-.17-3.08,2.84-5.61,6.35-5.22"/>
        <path class="cls-5" d="M464.52,527.32c6.52.72,17.07,1.17,27.41-1.52,3.43-.88,6.88,1.22,7.17,4.32,1.07,11.02.84,32.56-16.91,33.71,0,0-22.13,3.71-24.03-31.28-.17-3.08,2.84-5.61,6.35-5.22Z"/>
        <path class="cls-11" d="M721.41,430.7l63.49-94.72s-22.41-47.38,6.01-58.28l28.01-2.84,15.47-5.4,28.23-20.14,37.95-3.84s34.16,3.84,42.25,32.07c0,0,35.35,72.38-73.31,172.77l-70.71,63.21s-54.84-3.59-79.97-78.96"/>
        <path class="cls-2" d="M836.27,290.15c-17.95-28.71-44.87-14.36-44.87-14.36-31.74,20.27-5.74,59.85-5.74,59.85,0,0-10.86,34.58-66.55,96.78"/>
        <path class="cls-2" d="M828.68,279.77s38.43-57.13,88.33-27.29c0,0,59.77,27.17,21.75,105.27-5.59,11.47-13.12,21.07-20.35,31.51,0,0-59.23,82.73-118.92,123.16"/>
      </g>
      <rect class="cls-1" x="230.04" y="-695.73" width="831.49" height="907.05" transform="translate(836.13 420.73) rotate(-85.46)"/>
    </g>
  </g>
</svg>