<?xml version="1.0" encoding="UTF-8"?>
<svg xmlns="http://www.w3.org/2000/svg" xmlns:xlink="http://www.w3.org/1999/xlink" version="1.1" viewBox="0 0 1000 1000">
  <!-- Generator: Adobe Illustrator 29.2.1, SVG Export Plug-In . SVG Version: 2.1.0 Build 116)  -->
  <defs>
    <style>
      .st0, .st1, .st2, .st3, .st4, .st5, .st6, .st7, .st8, .st9, .st10, .st11, .st12 {
        fill: none;
      }

      .st1 {
        stroke: #9ff;
        stroke-width: 15.61px;
      }

      .st1, .st2, .st3, .st4, .st5, .st6, .st7 {
        stroke-linejoin: round;
      }

      .st1, .st2, .st3, .st4, .st5, .st7 {
        stroke-linecap: round;
      }

      .st2 {
        stroke-width: 11.9px;
      }

      .st2, .st3, .st4, .st5, .st6, .st9, .st10, .st11 {
        stroke: #000;
      }

      .st3 {
        stroke-width: 11.63px;
      }

      .st13 {
        fill: #ff66c8;
      }

      .st14 {
        fill: #507eff;
      }

      .st4 {
        stroke-width: 11.22px;
      }

      .st5 {
        stroke-width: 19px;
      }

      .st15 {
        fill: #9ff;
      }

      .st16 {
        fill: #ff3cb3;
      }

      .st17, .st18, .st7, .st19 {
        stroke: #fff;
      }

      .st17, .st18, .st8, .st9, .st10, .st11, .st19, .st12 {
        stroke-miterlimit: 10;
      }

      .st17, .st19 {
        stroke-width: 14px;
      }

      .st20, .st19 {
        fill: #fff;
      }

      .st6 {
        stroke-width: 6.31px;
      }

      .st18 {
        stroke-width: 13px;
      }

      .st7 {
        stroke-width: 10.91px;
      }

      .st21 {
        fill: #ff00bd;
      }

      .st22 {
        fill: #abfff7;
      }

      .st8 {
        stroke: #ff66a1;
        stroke-width: .78px;
      }

      .st9 {
        stroke-width: 13.03px;
      }

      .st10 {
        stroke-width: 12.09px;
      }

      .st11 {
        stroke-width: 21.67px;
      }

      .st12 {
        stroke: #ff4acc;
        stroke-width: 14.94px;
      }

      .st23 {
        clip-path: url(#clippath);
      }

      .st24 {
        fill: #ff6aaa;
      }
    </style>
    <clipPath id="clippath">
      <rect class="st0" x="186.09" y="91" width="699.57" height="641.29"/>
    </clipPath>
  </defs>
  <g id="Layer_1">
    <g>
      <g>
        <path d="M226.28,839.3l-4.7-16.57h-26.22l-4.45,16.57h-25.23l30.18-85.71h26.34l30.18,85.71h-26.1ZM199.82,805.91h17.31l-8.78-31.79-8.53,31.79Z"/>
        <path d="M321.27,839.3l-12.12-56.03-11.87,56.03h-25.11l-23.13-85.71h26.22l10.02,59.24,12.24-57.51h24.24l12.25,58.38,10.14-60.11h25.35l-23,85.71h-25.23Z"/>
        <path d="M398.07,804.67c-7.83-2.72-13.48-6.14-16.94-10.27-3.46-4.12-5.19-9.52-5.19-16.2,0-5.44,1.48-10.18,4.45-14.22,2.97-4.04,7.03-7.13,12.18-9.28,5.15-2.14,11.07-3.22,17.75-3.22,8.66,0,16.86,1.48,24.61,4.45v17.31c-7.83-2.23-15.38-3.34-22.63-3.34-8.49,0-12.74,2.23-12.74,6.68,0,1.65.74,3.05,2.23,4.21,1.48,1.16,4.21,2.39,8.16,3.71l7.42,2.47c8.49,2.8,14.53,6.16,18.12,10.08,3.59,3.92,5.38,9.13,5.38,15.65,0,9.07-3.24,16.12-9.71,21.15-6.47,5.03-15.56,7.54-27.27,7.54-5.03,0-9.9-.43-14.59-1.3-4.7-.87-8.7-2.04-12-3.53v-17.56c4.04,1.07,8.51,1.96,13.42,2.66,4.9.7,9.38,1.05,13.42,1.05,4.29,0,7.46-.56,9.52-1.67,2.06-1.11,3.09-2.86,3.09-5.26,0-1.32-.27-2.39-.8-3.22-.54-.82-1.57-1.63-3.09-2.41-1.53-.78-4.06-1.79-7.61-3.03l-7.17-2.47Z"/>
      </g>
      <path class="st14" d="M454.36,839.3v-85.71h23.87v35.37l27.7-35.37h26.59l-32.28,39.45,35.13,46.26h-27.7l-29.44-40.57v40.57h-23.87Z"/>
      <path class="st21" d="M543.65,839.3v-85.71h35.37c9.81,0,17.6,2.5,23.38,7.48,5.77,4.99,8.66,11.77,8.66,20.35,0,5.03-1.13,9.52-3.4,13.48-2.27,3.96-5.46,7.13-9.59,9.52l18.92,34.88h-24.74l-15.09-29.93h-10.88v29.93h-22.63ZM566.29,793.3h10.14c3.63,0,6.45-.99,8.47-2.97,2.02-1.98,3.03-4.82,3.03-8.53,0-7.5-3.92-11.26-11.75-11.26h-9.89v22.76Z"/>
      <g>
        <path d="M663.24,841.41c-11.86,0-21.07-2.91-27.62-8.72-6.55-5.81-9.83-14.08-9.83-24.8v-54.3h23.85v55.04c0,4.54,1.15,7.98,3.46,10.33,2.31,2.35,5.68,3.53,10.13,3.53,9.15,0,13.72-4.62,13.72-13.85v-55.04h23.85v54.42c0,10.64-3.3,18.86-9.89,24.67-6.59,5.81-15.82,8.72-27.68,8.72Z"/>
        <path d="M762.72,822.61c2.72,0,5.27-.16,7.66-.49v-15.83h-14.21v-16.57h35.47v44.28c-4.04,2.06-9.06,3.73-15.08,5.01-6.01,1.28-11.99,1.92-17.92,1.92-8.98,0-16.66-1.75-23.05-5.26-6.39-3.5-11.23-8.51-14.52-15.03-3.3-6.51-4.94-14.26-4.94-23.25,0-14.51,4.02-25.7,12.05-33.58,8.03-7.87,19.38-11.81,34.05-11.81,4.37,0,8.96.52,13.78,1.55,4.82,1.03,8.92,2.37,12.3,4.02v17.32c-3.79-1.24-7.87-2.23-12.24-2.97-4.37-.74-8.24-1.11-11.62-1.11-8.24,0-14.33,2.08-18.29,6.25-3.95,4.17-5.93,10.49-5.93,18.99v1.86c0,16.49,7.5,24.74,22.49,24.74Z"/>
      </g>
    </g>
    <path class="st15" d="M1704.39,561.83c-40.68,82.49-156.5,101.34-156.5,101.34-81.31,18.09-166.06,4.34-166.06,4.34-190.63-28.92-198.49-125.02-198.49-125.02-24.31-122.01,105.79-155.65,105.79-155.65,0,0,.81-139.19,147.42-156.03,0,0,130.71-19.53,170.25,151.96,0,0,58.79,5.69,91.83,61.59,11.55,19.54,19.43,43.85,18.83,66.78-.37,14.25-3.64,31.58-13.07,50.69"/>
    <path class="st1" d="M1704.39,561.83c-40.68,82.49-156.5,101.34-156.5,101.34-81.31,18.09-166.06,4.34-166.06,4.34-190.63-28.92-198.49-125.02-198.49-125.02-24.31-122.01,105.79-155.65,105.79-155.65,0,0,.81-139.19,147.42-156.03,0,0,130.71-19.53,170.25,151.96,0,0,58.79,5.69,91.83,61.59,11.55,19.54,19.43,43.85,18.83,66.78-.37,14.25-3.64,31.58-13.07,50.69Z"/>
    <path class="st19" d="M1414.05,494.62c1.67,66.09-18.63,120.22-45.33,120.89-26.7.67-49.7-52.36-51.37-118.45-1.67-66.09,18.63-120.22,45.33-120.89,26.7-.67,49.7,52.36,51.37,118.45"/>
    <path class="st7" d="M1414.05,494.62c1.67,66.09-18.63,120.22-45.33,120.89-26.7.67-49.7-52.36-51.37-118.45-1.67-66.09,18.63-120.22,45.33-120.89,26.7-.67,49.7,52.36,51.37,118.45Z"/>
    <path class="st20" d="M1585.69,484.36c1.67,66.09-18.63,120.22-45.33,120.89-26.7.67-49.7-52.36-51.37-118.45-1.67-66.09,18.63-120.22,45.33-120.89,26.7-.67,49.7,52.36,51.37,118.45"/>
    <path class="st7" d="M1585.69,484.36c1.67,66.09-18.63,120.22-45.33,120.89-26.7.67-49.7-52.36-51.37-118.45-1.67-66.09,18.63-120.22,45.33-120.89,26.7-.67,49.7,52.36,51.37,118.45Z"/>
    <path class="st18" d="M1411.92,496.57c1.09,44.73-8.85,81.25-22.2,81.58-13.35.33-25.06-35.67-26.15-80.4-1.09-44.73,8.85-81.25,22.2-81.58,13.35-.33,25.06,35.67,26.15,80.4"/>
    <ellipse class="st5" cx="1387.75" cy="497.16" rx="24.18" ry="81.02" transform="translate(-11.7 33.97) rotate(-1.4)"/>
    <path class="st17" d="M1541.52,491.06c1.09,44.73-8.85,81.25-22.2,81.58-13.35.33-25.06-35.67-26.15-80.4-1.09-44.73,8.85-81.25,22.2-81.58,13.35-.33,25.06,35.67,26.15,80.4"/>
    <ellipse class="st5" cx="1517.35" cy="491.65" rx="24.18" ry="81.02" transform="translate(-11.53 37.13) rotate(-1.4)"/>
    <path class="st13" d="M1466.16,474.81c.52,8.03-5.57,14.97-13.6,15.49-8.03.52-14.97-5.57-15.49-13.6-.52-8.03,5.57-14.97,13.6-15.49,8.03-.52,14.97,5.57,15.49,13.6"/>
    <path class="st8" d="M1466.16,474.81c.52,8.03-5.57,14.97-13.6,15.49-8.03.52-14.97-5.57-15.49-13.6-.52-8.03,5.57-14.97,13.6-15.49,8.03-.52,14.97,5.57,15.49,13.6Z"/>
    <rect class="st0" x="-1053.09" y="-726.68" width="831.49" height="907.05" transform="translate(-314.61 -886.89) rotate(-85.46)"/>
  </g>
  <g id="Layer_3">
    <g class="st23">
      <path class="st20" d="M383.77,541.76l-8.01,86.48s-31.05,21.22-25.83,52.2c2.64,15.64,13.26,26.25,26.33,34.02,12.87,7.65,32.08,14.25,58.17,11.06,11.14-1.36,23.17-4.47,32.19-11.46,10.98-8.51,22.89-24.78,22.89-55.27l-.33-101.11-105.4-15.92Z"/>
      <path class="st2" d="M383.77,541.76l-8.01,86.48s-31.05,21.22-25.83,52.2c2.64,15.64,13.26,26.25,26.33,34.02,12.87,7.65,32.08,14.25,58.17,11.06,11.14-1.36,23.17-4.47,32.19-11.46,10.98-8.51,22.89-24.78,22.89-55.27l-.33-101.11-105.4-15.92Z"/>
      <path class="st20" d="M590.62,540.43l14.02,87.08s31.05,21.22,25.83,52.2c-2.64,15.64-13.26,26.25-26.33,34.02-12.87,7.65-32.08,14.25-58.17,11.06-11.14-1.36-23.17-4.47-32.18-11.46-10.98-8.52-22.89-24.78-22.89-55.27l-1.72-99.05,101.45-18.58Z"/>
      <path class="st2" d="M590.62,540.43l14.02,87.08s31.05,21.22,25.83,52.2c-2.64,15.64-13.26,26.25-26.33,34.02-12.87,7.65-32.08,14.25-58.17,11.06-11.14-1.36-23.17-4.47-32.18-11.46-10.98-8.52-22.89-24.78-22.89-55.27l-1.72-99.05,101.45-18.58Z"/>
      <path class="st20" d="M285.91,507.28c-5.07,20.13-42.5,53.03-54.24,83.33-6.85,17.69-9.38,40.28,1.7,56.7,14.62,21.66,46.86,31.96,73.04,25.14,21.26-5.54,35.17-21.58,39.2-42.99,1.45-7.66,2.12-17.2,1.08-28.78,0,0,9.15-36.28,33.68-61.24"/>
      <path class="st4" d="M285.91,507.28c-5.07,20.13-42.5,53.03-54.24,83.33-6.85,17.69-9.38,40.28,1.7,56.7,14.62,21.66,46.86,31.96,73.04,25.14,21.26-5.54,35.17-21.58,39.2-42.99,1.45-7.66,2.12-17.2,1.08-28.78,0,0,9.15-36.28,33.68-61.24"/>
      <path class="st22" d="M294.38,286.75s-6.12-161.53,156.45-177.59c0,0,161.27-25.47,192.65,152.87,0,0,70.81,9.06,104.97,72.85,0,0,35.5,75.17-22.95,143.95-23.88,28.1-54.69,44.91-88.55,58.03-56.05,21.73-158.94,49.36-278.65,23.6-30.55-6.57-61.97-15.32-88.77-31.82-34.68-21.36-78.69-64.09-66.77-140.16,0,0,13.23-78.12,91.62-101.72"/>
      <path class="st11" d="M294.38,286.75s-6.12-161.53,156.45-177.59c0,0,161.27-25.47,192.65,152.87,0,0,70.81,9.06,104.97,72.85,0,0,35.5,75.17-22.95,143.95-23.88,28.1-54.69,44.91-88.55,58.03-56.05,21.73-158.94,49.36-278.65,23.6-30.55-6.57-61.97-15.32-88.77-31.82-34.68-21.36-78.69-64.09-66.77-140.16,0,0,13.23-78.12,91.62-101.72Z"/>
      <path class="st20" d="M623.45,370.92c4.93,69.86-15.27,128.21-45.13,130.32-29.86,2.11-58.07-52.82-63.01-122.68-4.93-69.86,15.27-128.2,45.13-130.31,29.86-2.12,58.08,52.81,63.01,122.67"/>
      <path class="st10" d="M623.45,370.92c4.93,69.86-15.27,128.21-45.13,130.32-29.86,2.11-58.07-52.82-63.01-122.68-4.93-69.86,15.27-128.2,45.13-130.31,29.86-2.12,58.08,52.81,63.01,122.67Z"/>
      <path class="st20" d="M442.51,383.71c4.93,69.86-15.27,128.21-45.13,130.32-29.86,2.11-58.07-52.82-63.01-122.68-4.93-69.86,15.27-128.2,45.13-130.31,29.86-2.12,58.08,52.81,63.01,122.67"/>
      <path class="st10" d="M442.51,383.71c4.93,69.86-15.27,128.21-45.13,130.32-29.86,2.11-58.07-52.82-63.01-122.68-4.93-69.86,15.27-128.2,45.13-130.31,29.86-2.12,58.08,52.81,63.01,122.67Z"/>
      <path d="M581.59,379.41c3.62,51.26-6.87,93.77-23.44,94.93-16.57,1.17-32.93-39.44-36.55-90.7-3.62-51.26,6.87-93.77,23.43-94.93,16.57-1.17,32.93,39.44,36.56,90.7"/>
      <path class="st9" d="M581.59,379.41c3.62,51.26-6.87,93.77-23.44,94.93-16.57,1.17-32.93-39.44-36.55-90.7-3.62-51.26,6.87-93.77,23.43-94.93,16.57-1.17,32.93,39.44,36.56,90.7Z"/>
      <path d="M437.94,388.55c3.62,51.26-6.87,93.77-23.44,94.93-16.57,1.17-32.93-39.44-36.55-90.7-3.62-51.26,6.87-93.77,23.43-94.93,16.57-1.17,32.93,39.44,36.56,90.7"/>
      <path class="st9" d="M437.94,388.55c3.62,51.26-6.87,93.77-23.44,94.93-16.57,1.17-32.93-39.44-36.55-90.7-3.62-51.26,6.87-93.77,23.43-94.93,16.57-1.17,32.93,39.44,36.56,90.7Z"/>
      <path class="st16" d="M486.38,370.57c.31,4.41-2.96,8.23-7.3,8.54-4.35.31-8.12-3.02-8.43-7.43-.32-4.41,2.95-8.24,7.3-8.54,4.35-.31,8.12,3.02,8.43,7.43"/>
      <path class="st12" d="M485.38,364.59c.31,4.41-2.96,8.23-7.3,8.54-4.35.31-8.12-3.02-8.43-7.43-.32-4.41,2.95-8.24,7.3-8.54,4.35-.31,8.12,3.02,8.43,7.43Z"/>
      <path class="st24" d="M472.81,442.19c5.03.55,13.17.9,21.14-1.17,2.64-.68,5.3.94,5.53,3.33.82,8.5.65,25.11-13.04,26,0,0-17.07,2.86-18.53-24.13-.13-2.38,2.19-4.33,4.9-4.03"/>
      <path class="st6" d="M473.81,441.32c5.03.55,13.17.9,21.14-1.17,2.64-.68,5.3.94,5.53,3.33.82,8.5.65,25.11-13.04,26,0,0-17.07,2.86-18.53-24.13-.13-2.38,2.19-4.33,4.9-4.03Z"/>
      <path class="st20" d="M671.94,366.81l48.97-73.05s-17.28-36.55,4.63-44.95l21.6-2.19,11.93-4.16,21.78-15.54,29.27-2.96s26.35,2.96,32.59,24.73c0,0,27.27,55.83-56.54,133.25l-54.54,48.75s-42.3-2.77-61.68-60.9"/>
      <path class="st3" d="M760.52,258.41c-13.84-22.15-34.6-11.07-34.6-11.07-24.48,15.63-4.42,46.16-4.42,46.16,0,0-8.37,26.67-51.33,74.64"/>
      <path class="st3" d="M754.67,250.4s29.64-44.06,68.12-21.05c0,0,46.1,20.96,16.77,81.19-4.31,8.85-10.12,16.25-15.69,24.3,0,0-45.68,63.8-91.72,94.99"/>
    </g>
  </g>
</svg>