<?xml version="1.0" encoding="UTF-8"?>
<svg xmlns="http://www.w3.org/2000/svg" xmlns:xlink="http://www.w3.org/1999/xlink" version="1.1" viewBox="0 0 977.61 1001.39">
  <!-- Generator: Adobe Illustrator 29.0.0, SVG Export Plug-In . SVG Version: 2.1.0 Build 186)  -->
  <defs>
    <style>
      .st0, .st1, .st2, .st3, .st4, .st5, .st6 {
        fill: none;
      }

      .st1 {
        stroke-width: 13px;
      }

      .st1, .st2, .st3, .st7, .st8, .st9, .st4, .st5, .st6 {
        stroke: #000;
      }

      .st1, .st2, .st3, .st8, .st9, .st4, .st5, .st6 {
        stroke-linecap: round;
        stroke-linejoin: round;
      }

      .st2 {
        stroke-width: 12px;
      }

      .st3 {
        stroke-width: 9px;
      }

      .st7, .st10 {
        stroke-miterlimit: 10;
        stroke-width: 2px;
      }

      .st8 {
        stroke-width: 13.97px;
      }

      .st9 {
        stroke-width: 13.99px;
      }

      .st4 {
        stroke-width: 14px;
      }

      .st5 {
        stroke-width: 10px;
      }

      .st6 {
        stroke-width: 19px;
      }

      .st10 {
        stroke: #252f3e;
      }

      .st11 {
        fill-rule: evenodd;
      }

      .st12 {
        fill: #fff;
      }

      .st13 {
        font-family: AmazonEmber-Heavy, 'Amazon Ember';
        font-size: 33.13px;
        font-weight: 800;
        letter-spacing: .05em;
      }

      .st14 {
        clip-path: url(#clippath);
      }
    </style>
    <clipPath id="clippath">
      <rect class="st0" x="-756.52" y="752.12" width="436.42" height="98.14"/>
    </clipPath>
  </defs>
  <g id="back_side">
    <g>
      <g>
        <path d="M119.59,533.05c-10.81,0-19.03-2.86-24.66-8.58-5.63-5.72-8.44-14.08-8.44-25.08s2.94-19.2,8.82-25.17c5.88-5.97,14.06-8.96,24.56-8.96,5.03,0,9.74.66,14.14,1.98,1,.32,1.68.74,2.03,1.27.34.53.52,1.4.52,2.59v7.92c0,1.7-.66,2.55-1.98,2.55-.32,0-1.1-.16-2.36-.47-3.08-.69-6.16-1.04-9.24-1.04-5.78,0-10.15,1.52-13.11,4.57-2.96,3.05-4.43,7.56-4.43,13.53v2.07c0,5.85,1.43,10.31,4.29,13.39,2.86,3.08,7.09,4.62,12.68,4.62,3.9,0,7.54-.41,10.94-1.23,1-.25,1.73-.38,2.17-.38,1.32,0,1.98.85,1.98,2.55v7.92c0,1.2-.17,2.06-.52,2.59-.35.53-1.02.96-2.03,1.27-4.28,1.38-9.4,2.07-15.37,2.07Z"/>
        <path d="M175.32,533.43c-6.85,0-12.76-1.43-17.73-4.29-4.97-2.86-8.74-6.87-11.31-12.02-2.58-5.15-3.87-11.19-3.87-18.1s1.35-13.22,4.05-18.34c2.7-5.12,6.52-9.04,11.46-11.74,4.93-2.7,10.73-4.05,17.4-4.05s12.76,1.42,17.73,4.24c4.96,2.83,8.75,6.82,11.36,11.97,2.61,5.16,3.91,11.22,3.91,18.2s-1.35,13.23-4.05,18.39c-2.7,5.16-6.54,9.07-11.5,11.74-4.97,2.67-10.78,4.01-17.44,4.01ZM175.32,519c4.78,0,8.38-1.67,10.8-5,2.42-3.33,3.63-8.23,3.63-14.71s-1.23-11.58-3.68-14.94c-2.45-3.36-6.03-5.04-10.75-5.04s-8.28,1.67-10.7,5c-2.42,3.33-3.63,8.24-3.63,14.71s1.21,11.5,3.63,14.9c2.42,3.39,5.99,5.09,10.7,5.09Z"/>
        <path d="M223.21,531.82c-1.01,0-1.73-.22-2.17-.66-.44-.44-.66-1.16-.66-2.17v-59.68c0-1.07.22-1.81.66-2.22.44-.41,1.16-.61,2.17-.61h14.14c.88,0,1.56.14,2.03.42.47.28.93.9,1.37,1.84l14.8,33.19,14.99-33.19c.44-.94.9-1.56,1.37-1.84.47-.28,1.15-.42,2.03-.42h13.48c1.07,0,1.81.2,2.22.61.41.41.61,1.15.61,2.22v59.68c0,1.01-.21,1.73-.61,2.17-.41.44-1.15.66-2.22.66h-9.99c-1.01,0-1.73-.22-2.17-.66-.44-.44-.66-1.16-.66-2.17v-37.53l-10.28,23.19c-.44.94-.9,1.56-1.37,1.84-.47.28-1.15.42-2.03.42h-11.22c-.88,0-1.56-.14-2.03-.42-.47-.28-.93-.9-1.37-1.84l-10.28-23.19v37.53c0,1.01-.2,1.73-.61,2.17-.41.44-1.15.66-2.22.66h-9.99Z"/>
        <path d="M307.03,531.82c-1.01,0-1.73-.22-2.17-.66-.44-.44-.66-1.16-.66-2.17v-59.68c0-1.07.22-1.81.66-2.22.44-.41,1.16-.61,2.17-.61h14.14c.88,0,1.56.14,2.03.42.47.28.93.9,1.37,1.84l14.8,33.19,14.99-33.19c.44-.94.9-1.56,1.37-1.84.47-.28,1.15-.42,2.03-.42h13.48c1.07,0,1.81.2,2.22.61.41.41.61,1.15.61,2.22v59.68c0,1.01-.21,1.73-.61,2.17-.41.44-1.15.66-2.22.66h-9.99c-1.01,0-1.73-.22-2.17-.66-.44-.44-.66-1.16-.66-2.17v-37.53l-10.28,23.19c-.44.94-.9,1.56-1.37,1.84-.47.28-1.15.42-2.03.42h-11.22c-.88,0-1.56-.14-2.03-.42-.47-.28-.93-.9-1.37-1.84l-10.28-23.19v37.53c0,1.01-.2,1.73-.61,2.17-.41.44-1.15.66-2.22.66h-9.99Z"/>
        <path d="M416.22,533.43c-9.05,0-16.08-2.22-21.07-6.65-5-4.43-7.5-10.73-7.5-18.91v-38.56c0-1.07.22-1.81.66-2.22.44-.41,1.16-.61,2.17-.61h12.54c1.07,0,1.81.2,2.22.61.41.41.61,1.15.61,2.22v39.13c0,3.46.88,6.08,2.64,7.87,1.76,1.79,4.34,2.69,7.73,2.69,6.98,0,10.47-3.52,10.47-10.56v-39.13c0-1.07.22-1.81.66-2.22.44-.41,1.16-.61,2.17-.61h12.54c1.07,0,1.81.2,2.22.61.41.41.61,1.15.61,2.22v38.66c0,8.11-2.51,14.38-7.54,18.81-5.03,4.43-12.07,6.65-21.12,6.65Z"/>
        <path d="M461.29,531.82c-1.01,0-1.73-.22-2.17-.66-.44-.44-.66-1.16-.66-2.17v-59.68c0-1.07.22-1.81.66-2.22.44-.41,1.16-.61,2.17-.61h13.29c1.07,0,1.87.16,2.4.47.53.31,1.02.85,1.46,1.6l21.78,39.22v-38.47c0-1.07.22-1.81.66-2.22.44-.41,1.16-.61,2.17-.61h9.99c1.07,0,1.81.2,2.22.61.41.41.61,1.15.61,2.22v59.68c0,1.01-.21,1.73-.61,2.17-.41.44-1.15.66-2.22.66h-13.29c-1.07,0-1.87-.16-2.4-.47-.54-.31-1.02-.85-1.46-1.6l-21.78-38.85v38.09c0,1.01-.21,1.73-.61,2.17-.41.44-1.15.66-2.21.66h-10Z"/>
        <path d="M533.04,531.82c-1.01,0-1.73-.22-2.17-.66-.44-.44-.66-1.16-.66-2.17v-59.68c0-1.07.22-1.81.66-2.22.44-.41,1.16-.61,2.17-.61h12.54c1.07,0,1.81.2,2.22.61.41.41.61,1.15.61,2.22v59.68c0,1.01-.21,1.73-.61,2.17-.41.44-1.15.66-2.22.66h-12.54Z"/>
        <path d="M578.39,531.82c-1.01,0-1.73-.22-2.17-.66-.44-.44-.66-1.16-.66-2.17v-48.27h-16.12c-1.01,0-1.73-.22-2.17-.66-.44-.44-.66-1.16-.66-2.17v-8.58c0-1.07.22-1.81.66-2.22.44-.41,1.16-.61,2.17-.61h50.44c1.07,0,1.81.2,2.22.61.41.41.61,1.15.61,2.22v8.58c0,1.01-.2,1.73-.61,2.17-.41.44-1.15.66-2.22.66h-16.12v48.27c0,1.01-.21,1.73-.61,2.17-.41.44-1.15.66-2.22.66h-12.54Z"/>
        <path d="M642.32,531.82c-1.01,0-1.73-.22-2.17-.66-.44-.44-.66-1.16-.66-2.17v-21.78l-19.71-36.02c-.75-1.32-1.13-2.26-1.13-2.83,0-1.26.82-1.89,2.45-1.89h13.39c1,0,1.81.19,2.4.57.6.38,1.08,1.01,1.46,1.89l10.75,25.27,10.94-25.27c.38-.88.86-1.51,1.46-1.89.6-.38,1.4-.57,2.4-.57h12.45c1.63,0,2.45.63,2.45,1.89,0,.57-.38,1.51-1.13,2.83l-19.99,36.21v21.59c0,1.01-.2,1.73-.61,2.17-.41.44-1.15.66-2.22.66h-12.54Z"/>
        <path d="M707.65,531.82c-1.01,0-1.73-.22-2.17-.66-.44-.44-.66-1.16-.66-2.17v-59.68c0-1.07.22-1.81.66-2.22.44-.41,1.16-.61,2.17-.61h22.72c10.06,0,17.85,2.83,23.38,8.49,5.53,5.66,8.3,13.7,8.3,24.14,0,6.85-1.23,12.75-3.68,17.68-2.45,4.94-5.96,8.67-10.51,11.22-4.56,2.55-10.01,3.82-16.36,3.82h-23.85ZM723.02,517.87h6.22c9.49,0,14.24-5.97,14.24-17.92v-1.7c0-11.88-4.68-17.82-14.05-17.82h-6.41v37.43Z"/>
        <path d="M767.62,531.82c-1.63,0-2.45-.63-2.45-1.89,0-.5.25-1.45.75-2.83l20.84-58.36c.31-.88.69-1.48,1.13-1.79.44-.31,1.16-.47,2.17-.47h15.09c1,0,1.73.16,2.17.47.44.31.82.91,1.13,1.79l20.93,58.36c.5,1.38.75,2.33.75,2.83,0,1.26-.82,1.89-2.45,1.89h-14.14c-1.01,0-1.74-.19-2.22-.57-.47-.38-.86-1.13-1.18-2.26l-2.83-9.81h-20.18l-2.73,9.81c-.32,1.13-.71,1.89-1.18,2.26-.47.38-1.21.57-2.22.57h-13.39ZM803.92,506.37l-6.79-24.23-6.6,24.23h13.39Z"/>
        <path d="M849.37,531.82c-1.01,0-1.73-.22-2.17-.66-.44-.44-.66-1.16-.66-2.17v-21.78l-19.71-36.02c-.75-1.32-1.13-2.26-1.13-2.83,0-1.26.82-1.89,2.45-1.89h13.39c1,0,1.81.19,2.4.57.6.38,1.08,1.01,1.46,1.89l10.75,25.27,10.94-25.27c.38-.88.86-1.51,1.46-1.89.6-.38,1.4-.57,2.4-.57h12.45c1.63,0,2.45.63,2.45,1.89,0,.57-.38,1.51-1.13,2.83l-19.99,36.21v21.59c0,1.01-.2,1.73-.61,2.17-.41.44-1.15.66-2.22.66h-12.54Z"/>
      </g>
      <g>
        <path d="M456.05,388.05c0,1.72.17,3.08.52,4.1.35,1.02.84,2.12,1.49,3.29.21.38.32.72.32,1.04,0,.48-.3.94-.88,1.37l-2.89,1.93c-.43.27-.83.4-1.21.4-.48,0-.94-.21-1.37-.64-.64-.64-1.19-1.35-1.65-2.13-.46-.78-.92-1.67-1.41-2.69-3.59,4.23-8.09,6.35-13.5,6.35-3.86,0-6.91-1.1-9.16-3.29-2.25-2.2-3.37-5.14-3.37-8.84,0-3.91,1.39-7.06,4.18-9.44,2.78-2.38,6.53-3.58,11.25-3.58,1.55,0,3.17.12,4.86.36,1.69.24,3.44.58,5.26,1v-3.37c0-3.48-.72-5.93-2.17-7.35-1.45-1.42-3.94-2.13-7.47-2.13-1.61,0-3.25.2-4.94.6-1.69.4-3.33.92-4.94,1.57-.75.32-1.29.52-1.61.6-.32.08-.56.12-.72.12-.64,0-.96-.48-.96-1.45v-2.25c0-.75.11-1.29.32-1.61.21-.32.64-.64,1.29-.96,1.61-.8,3.54-1.5,5.79-2.09,2.25-.59,4.63-.88,7.15-.88,5.46,0,9.47,1.25,12.01,3.74,2.54,2.49,3.82,6.25,3.82,11.29v14.95ZM437.41,395.04c1.5,0,3.08-.28,4.74-.84,1.66-.56,3.11-1.54,4.34-2.93.75-.86,1.27-1.83,1.57-2.93.29-1.1.44-2.42.44-3.98v-1.93c-1.34-.32-2.75-.57-4.22-.76-1.47-.19-2.91-.28-4.3-.28-3.05,0-5.33.62-6.83,1.85-1.5,1.23-2.25,3-2.25,5.3,0,2.14.56,3.76,1.69,4.86,1.13,1.1,2.73,1.65,4.82,1.65ZM474.29,400.02c-.8,0-1.39-.15-1.77-.44-.38-.29-.7-.9-.96-1.81l-10.77-35.51c-.27-.91-.4-1.53-.4-1.85,0-.75.37-1.13,1.12-1.13h4.5c.86,0,1.46.15,1.81.44.35.3.66.9.92,1.81l7.71,30.37,7.15-30.37c.21-.91.51-1.51.88-1.81.37-.29.99-.44,1.85-.44h3.7c.86,0,1.47.15,1.85.44.37.3.67.9.88,1.81l7.23,30.77,7.95-30.77c.27-.91.57-1.51.92-1.81.35-.29.95-.44,1.81-.44h4.26c.75,0,1.13.38,1.13,1.13,0,.21-.03.46-.08.72-.05.27-.16.64-.32,1.13l-11.09,35.51c-.27.91-.59,1.51-.96,1.81-.38.3-.96.44-1.77.44h-3.94c-.86,0-1.47-.16-1.85-.48-.38-.32-.67-.94-.88-1.85l-7.15-29.57-7.07,29.57c-.21.91-.51,1.53-.88,1.85-.38.32-.99.48-1.85.48h-3.94ZM533.26,401.23c-2.41,0-4.77-.27-7.07-.8-2.3-.53-4.07-1.15-5.3-1.85-.75-.43-1.22-.86-1.41-1.29-.19-.43-.28-.86-.28-1.29v-2.33c0-.96.35-1.45,1.04-1.45.27,0,.55.05.84.16.29.11.68.27,1.17.48,1.55.7,3.24,1.23,5.06,1.61,1.82.38,3.64.56,5.46.56,2.89,0,5.13-.51,6.71-1.53,1.58-1.02,2.37-2.46,2.37-4.34,0-1.29-.42-2.36-1.25-3.21-.83-.86-2.37-1.66-4.62-2.41l-6.67-2.09c-3.37-1.07-5.83-2.62-7.35-4.66-1.53-2.03-2.29-4.26-2.29-6.67,0-1.93.41-3.63,1.25-5.1.83-1.47,1.93-2.73,3.29-3.78,1.37-1.04,2.96-1.83,4.78-2.37,1.82-.53,3.75-.8,5.79-.8,1.02,0,2.05.07,3.09.2,1.04.13,2.04.31,2.97.52.94.21,1.81.46,2.61.72.8.27,1.45.54,1.93.8.64.38,1.1.75,1.37,1.13.27.38.4.88.4,1.53v2.17c0,.96-.35,1.45-1.04,1.45-.38,0-.96-.19-1.77-.56-2.63-1.18-5.57-1.77-8.84-1.77-2.63,0-4.66.43-6.11,1.29-1.45.86-2.17,2.22-2.17,4.1,0,1.29.45,2.37,1.37,3.25.91.88,2.6,1.73,5.06,2.53l6.51,2.09c3.32,1.07,5.69,2.55,7.11,4.42,1.42,1.88,2.13,4.02,2.13,6.43,0,1.98-.4,3.76-1.21,5.34-.8,1.58-1.92,2.93-3.33,4.06-1.42,1.13-3.12,1.98-5.1,2.57-1.98.59-4.15.88-6.51.88Z"/>
        <g>
          <path class="st11" d="M541.95,423.84c-15.12,11.16-37.03,17.09-55.91,17.09-26.45,0-50.27-9.78-68.29-26.05-1.42-1.28-.15-3.02,1.55-2.03,19.45,11.32,43.49,18.13,68.33,18.13,16.76,0,35.17-3.48,52.12-10.67,2.56-1.08,4.7,1.68,2.2,3.53Z"/>
          <path class="st11" d="M548.24,416.66c-1.93-2.48-12.78-1.17-17.65-.59-1.48.18-1.71-1.11-.37-2.05,8.65-6.08,22.83-4.32,24.48-2.29,1.66,2.05-.44,16.27-8.55,23.05-1.25,1.04-2.43.49-1.88-.89,1.83-4.56,5.91-14.76,3.97-17.24Z"/>
        </g>
      </g>
      <line class="st10" x1="410.55" y1="566.92" x2="149.74" y2="566.92"/>
      <line class="st10" x1="822.62" y1="566.92" x2="561.8" y2="566.92"/>
      <text id="CHANGE_LOCATION" class="st13" transform="translate(427.5 578.72)"><tspan x="0" y="0">SEOUL</tspan></text>
    </g>
  </g>
  <g id="front_side">
    <g id="gurumi">
      <path class="st4" d="M-702.64,523.33l-33.6.25c-2.75.12-5.46.45-8.11.97"/>
      <path class="st4" d="M-762.22,616.83c7.75,4.86,19.04,8.33,34.9,5.82,0,0,18.83-2.97,33.69-19.16,0,0,38.56-8.95,72.13-14.3"/>
      <path class="st4" d="M-615.72,569.7l-11.09,76.2s-37.65,27.74-9.91,61.43c0,0,26.75,32.7,83.23,10.9"/>
      <path class="st4" d="M-539.57,584.67l-1.94,69.15s-42.61,47.56,9.91,76.29c0,0,59.59,26.62,93.93-18.3"/>
      <path class="st2" d="M-435,710.66l-20.48,5.55c-10.18,2.75-20.78-2.85-23.67-12.5l-16.8-67.11c-2.93-9.78,3.21-19.94,13.6-22.5l16.42-4.09"/>
      <path class="st2" d="M-383.15,589.39l12.56-3.13c10.3-2.54,20.82,3.37,23.4,13.16l13.99,65.41c2.51,9.5-3.39,19.17-13.33,21.85l-7.11,1.93"/>
      <path class="st4" d="M-388.65,579.11c-1.32,0,23.34,39.25,34.35,68.7,5.8,15.51,4.5,38.66-6.96,51.52-15.13,16.98-45.02,23.59-66.4,14.47-17.37-7.4-27.18-23-27.94-42.05-.27-6.82.34-15.16,2.68-25.06,0,0-10.72-30.26-20.96-57.18"/>
      <path class="st6" d="M-310.85,529.18c-35.78,41.88-103.05,56.49-153.97,59.02-76.06,4.73-150.05-19.74-150.1-19.76-36.19-12.46-78.24-32.21-107.23-59.05s-45.24-63.25-40.14-105.07c3.48-28.53,14.62-48.34,28.46-64.96,31.87-38.27,79.03-47.71,79.03-47.71,0,0,16.07-122.22,150.71-116.04,0,0,138.68.28,137.69,159.74,0,0,55.72,16.15,76.38,73.24,16.07,44.4,4,91.53-20.82,120.58Z"/>
      <path class="st7" d="M-525.33,408.5c-.66,7.6-7.35,13.22-14.95,12.56-7.6-.66-13.22-7.35-12.56-14.95.66-7.6,7.35-13.22,14.95-12.56,7.6.66,13.22,7.35,12.56,14.95"/>
      <path class="st3" d="M-561.66,479.74s3.61,8.34,13.84,10.62c4.68,1.05,11.56,1.16,17.87-5.75"/>
      <path class="st5" d="M-415.62,432.94c-8.05,62.12-34.92,109.84-60.02,106.59-25.1-3.25-38.92-56.24-30.87-118.36,8.05-62.12,34.92-109.84,60.02-106.59,25.1,3.25,38.92,56.24,30.87,118.36Z"/>
      <ellipse class="st9" cx="-444.99" cy="430.05" rx="79.97" ry="22.73" transform="translate(-810.39 -69.39) rotate(-82.17)"/>
      <path class="st5" d="M-570.71,413.12c-8.08,61.05-34.2,108.07-58.34,105.01-24.14-3.06-37.15-55.03-29.07-116.08,8.08-61.05,34.2-108.07,58.34-105.01,24.14,3.06,37.15,55.03,29.07,116.08Z"/>
      <ellipse class="st8" cx="-597.98" cy="411.52" rx="78.97" ry="22.95" transform="translate(-926.19 -235.95) rotate(-82.35)"/>
      <path class="st1" d="M-774.01,622.86c6.79-6.36,9.26-7.89,16.54-19.18,12.2.4,25.2-7.55,31.07-13.93,14.45-15.7,11.06-43.97-6.41-55.29-3.17-2.05-6.46-3.09-10.05-3.89-2.79-.63-5.95-1.31-5.89-1.24,0-.06.07-8.54.08-8.6.09-5.64-4.5-10.1-9.85-9.71l-135.53,5.71c-4.62.34-8.21,4.25-8.57,9.11-3.61,49.31,16.08,86.01,37.49,101.42,4.72,3.4,10.39,5.03,16.11,4.83l57.76-2.02c6.36-.22,12.49-2.74,17.25-7.2Z"/>
      <path class="st4" d="M-752.6,546.44c6.87,1.58,10.8,6.95,13,14.41,0,0,2.53,8.58-3.48,16.89-5.33,7.37-13.55,9.22-22.1,6.99-8.95-2.34-15.21-14.93-12.56-26.03,2.42-10.1,12.73-13.11,21.68-12.72,1.23.05,2.38.21,3.46.46Z"/>
      <path class="st5" d="M-828.28,491.85c5.93-2.99,12.77-8.15,14.38-14.31,2.24-8.6-4.22-17.36-13.09-17.23s-12.56,3.27-18.32,9.49c-.43.47-4.42-1.08-8.55-.68-5.19.5-13.17,4.99-13.61,12.17-.28,4.73,1.46,8.71,5.5,11.23,8.55,5.33,22.62,4.92,33.69-.66Z"/>
      <path class="st5" d="M-803.32,426.4s9.69-4.52,15.1,2.95c1.43,1.97,2.19,4.1,2.28,6.51.23,6.55-4.54,10-10.31,12.03-8.26,2.91-20.01-.7-25.09-8.34-4.35-6.56-3.8-14.13,4.19-17.4,0,0,7.48-3.73,13.82,4.24Z"/>
      <g>
        <path class="st12" d="M-822.11,487.91"/>
        <path d="M-822.11,489.41c1.93,0,1.93-3,0-3s-1.93,3,0,3h0Z"/>
      </g>
      <path class="st5" d="M-864.03,449.97c7.77-4.84,16.53-12.78,17.97-21.46,2.01-12.1-7.96-23.32-20.13-22.04-12.16,1.27-16.85,6.06-23.99,15.32-.54.69-6.2-.93-11.84.13-7.07,1.33-17.48,8.5-17.18,18.41.2,6.53,3.09,11.78,8.96,14.74,12.41,6.26,31.68,3.94,46.2-5.1Z"/>
    </g>
    <g id="title">
      <g class="st14">
        <g>
          <path d="M-714.62,824.21l-3.24-11.41h-18.05l-3.07,11.41h-17.37l20.78-59.01h18.14l20.78,59.01h-17.97ZM-732.84,801.22h11.92l-6.05-21.88-5.88,21.88Z"/>
          <path d="M-649.22,824.21l-8.35-38.58-8.17,38.58h-17.29l-15.92-59.01h18.05l6.9,40.79,8.43-39.6h16.69l8.43,40.19,6.98-41.39h17.46l-15.84,59.01h-17.37Z"/>
          <path d="M-596.34,800.37c-5.39-1.87-9.28-4.23-11.67-7.07-2.38-2.84-3.58-6.56-3.58-11.16,0-3.75,1.02-7.01,3.07-9.79,2.04-2.78,4.84-4.91,8.39-6.39,3.55-1.48,7.62-2.21,12.22-2.21,5.96,0,11.61,1.02,16.95,3.07v11.92c-5.39-1.53-10.59-2.3-15.58-2.3-5.85,0-8.77,1.53-8.77,4.6,0,1.14.51,2.1,1.53,2.9s2.9,1.65,5.62,2.55l5.11,1.7c5.85,1.93,10.01,4.24,12.48,6.94,2.47,2.7,3.7,6.29,3.7,10.77,0,6.25-2.23,11.1-6.68,14.56-4.46,3.46-10.72,5.19-18.78,5.19-3.46,0-6.81-.3-10.05-.89-3.24-.6-5.99-1.41-8.26-2.43v-12.09c2.78.74,5.86,1.35,9.24,1.83,3.38.48,6.46.72,9.24.72,2.95,0,5.14-.38,6.56-1.15,1.42-.77,2.13-1.97,2.13-3.62,0-.91-.18-1.65-.55-2.21-.37-.57-1.08-1.12-2.13-1.66-1.05-.54-2.8-1.23-5.24-2.09l-4.94-1.7Z"/>
        </g>
        <path d="M-557.59,824.21v-59.01h16.43v24.35l19.08-24.35h18.31l-22.23,27.16,24.18,31.85h-19.07l-20.27-27.93v27.93h-16.43Z"/>
        <path d="M-496.11,824.21v-59.01h24.35c6.75,0,12.12,1.72,16.09,5.15,3.97,3.44,5.96,8.1,5.96,14.01,0,3.46-.78,6.56-2.34,9.28-1.56,2.73-3.76,4.91-6.6,6.56l13.03,24.01h-17.03l-10.39-20.61h-7.49v20.61h-15.58ZM-480.53,792.53h6.98c2.5,0,4.44-.68,5.83-2.04,1.39-1.36,2.09-3.32,2.09-5.88,0-5.17-2.7-7.75-8.09-7.75h-6.81v15.67Z"/>
        <g>
          <path d="M-413.85,825.66c-8.17,0-14.52-2-19.03-6-4.51-4-6.77-9.69-6.77-17.07v-37.38h16.43v37.89c0,3.12.79,5.49,2.38,7.11,1.59,1.62,3.92,2.43,6.98,2.43,6.3,0,9.45-3.18,9.45-9.54v-37.89h16.43v37.47c0,7.32-2.27,12.99-6.81,16.99-4.54,4-10.9,6-19.08,6Z"/>
          <path d="M-345.3,812.71c1.87,0,3.63-.11,5.28-.34v-10.9h-9.79v-11.41h24.44v30.49c-2.78,1.42-6.25,2.57-10.39,3.45-4.14.88-8.26,1.32-12.35,1.32-6.19,0-11.48-1.21-15.88-3.62-4.4-2.41-7.74-5.86-10.01-10.35-2.27-4.48-3.41-9.82-3.41-16.01,0-9.99,2.77-17.7,8.3-23.12,5.54-5.42,13.35-8.13,23.46-8.13,3.01,0,6.17.36,9.5,1.06,3.32.71,6.14,1.63,8.47,2.77v11.92c-2.61-.85-5.42-1.53-8.43-2.04-3.01-.51-5.68-.77-8-.77-5.68,0-9.88,1.43-12.6,4.3-2.72,2.87-4.09,7.22-4.09,13.07v1.28c0,11.36,5.17,17.03,15.5,17.03Z"/>
        </g>
      </g>
    </g>
  </g>
</svg>